ISO-10303-21;
HEADER;
/* Generated by software containing ST-Developer
 * from STEP Tools, Inc. (www.steptools.com) 
 */

FILE_DESCRIPTION(
/* description */ (''),
/* implementation_level */ '2;1');

FILE_NAME(
/* name */ 'Component8.step',
/* time_stamp */ '2026-09-25T20:56:07+05:30',
/* author */ (''),
/* organization */ (''),
/* preprocessor_version */ 'ST-DEVELOPER v20.2',
/* originating_system */ 'Autodesk Translation Framework v15.15.0.0',
/* authorisation */ '');

FILE_SCHEMA (('AUTOMOTIVE_DESIGN { 1 0 10303 214 3 1 1 }'));
ENDSEC;

DATA;
#10=MECHANICAL_DESIGN_GEOMETRIC_PRESENTATION_REPRESENTATION('',(#13),#582);
#11=SHAPE_REPRESENTATION_RELATIONSHIP('SRR','None',#589,#12);
#12=ADVANCED_BREP_SHAPE_REPRESENTATION('',(#14),#581);
#13=STYLED_ITEM('',(#599),#14);
#14=MANIFOLD_SOLID_BREP('Body3',#304);
#15=PLANE('',#325);
#16=PLANE('',#326);
#17=PLANE('',#327);
#18=PLANE('',#337);
#19=PLANE('',#338);
#20=PLANE('',#339);
#21=PLANE('',#341);
#22=PLANE('',#343);
#23=FACE_BOUND('',#47,.T.);
#24=FACE_BOUND('',#55,.T.);
#25=FACE_BOUND('',#56,.T.);
#26=FACE_BOUND('',#57,.T.);
#27=FACE_BOUND('',#62,.T.);
#28=FACE_BOUND('',#64,.T.);
#29=FACE_OUTER_BOUND('',#44,.T.);
#30=FACE_OUTER_BOUND('',#45,.T.);
#31=FACE_OUTER_BOUND('',#46,.T.);
#32=FACE_OUTER_BOUND('',#48,.T.);
#33=FACE_OUTER_BOUND('',#49,.T.);
#34=FACE_OUTER_BOUND('',#50,.T.);
#35=FACE_OUTER_BOUND('',#51,.T.);
#36=FACE_OUTER_BOUND('',#52,.T.);
#37=FACE_OUTER_BOUND('',#53,.T.);
#38=FACE_OUTER_BOUND('',#54,.T.);
#39=FACE_OUTER_BOUND('',#58,.T.);
#40=FACE_OUTER_BOUND('',#59,.T.);
#41=FACE_OUTER_BOUND('',#60,.T.);
#42=FACE_OUTER_BOUND('',#61,.T.);
#43=FACE_OUTER_BOUND('',#63,.T.);
#44=EDGE_LOOP('',(#200,#201,#202,#203,#204));
#45=EDGE_LOOP('',(#205,#206,#207,#208,#209));
#46=EDGE_LOOP('',(#210,#211,#212,#213));
#47=EDGE_LOOP('',(#214,#215));
#48=EDGE_LOOP('',(#216,#217,#218,#219,#220));
#49=EDGE_LOOP('',(#221,#222,#223,#224));
#50=EDGE_LOOP('',(#225,#226,#227,#228,#229));
#51=EDGE_LOOP('',(#230,#231,#232,#233));
#52=EDGE_LOOP('',(#234,#235,#236,#237));
#53=EDGE_LOOP('',(#238,#239,#240,#241));
#54=EDGE_LOOP('',(#242,#243,#244,#245,#246,#247,#248,#249));
#55=EDGE_LOOP('',(#250));
#56=EDGE_LOOP('',(#251));
#57=EDGE_LOOP('',(#252));
#58=EDGE_LOOP('',(#253,#254,#255,#256));
#59=EDGE_LOOP('',(#257,#258,#259,#260,#261));
#60=EDGE_LOOP('',(#262,#263,#264,#265,#266));
#61=EDGE_LOOP('',(#267,#268,#269,#270,#271,#272,#273,#274));
#62=EDGE_LOOP('',(#275));
#63=EDGE_LOOP('',(#276,#277,#278,#279));
#64=EDGE_LOOP('',(#280,#281));
#65=B_SPLINE_CURVE_WITH_KNOTS('',3,(#433,#434,#435,#436,#437,#438,#439,
#440,#441,#442,#443,#444,#445,#446,#447,#448,#449,#450),.UNSPECIFIED.,.F.,
 .F.,(4,2,2,2,2,2,2,2,4),(0.,0.056461724458787,0.112923448917574,0.170004502951754,
0.227085556985935,0.284416400073416,0.341747243160897,0.398234608559403,
0.454721973957909),.UNSPECIFIED.);
#66=B_SPLINE_CURVE_WITH_KNOTS('',3,(#451,#452,#453,#454,#455,#456,#457,
#458,#459,#460,#461,#462,#463,#464,#465,#466,#467,#468),.UNSPECIFIED.,.F.,
 .F.,(4,2,2,2,2,2,2,2,4),(0.454721973957909,0.511424912802813,0.568127851647717,
0.625243271720482,0.682358691793247,0.739308438243661,0.796258184694076,
0.852851248382886,0.909444312071697),.UNSPECIFIED.);
#67=B_SPLINE_CURVE_WITH_KNOTS('',3,(#475,#476,#477,#478,#479,#480,#481,
#482,#483,#484,#485,#486,#487,#488,#489,#490,#491,#492),.UNSPECIFIED.,.F.,
 .F.,(4,2,2,2,2,2,2,2,4),(0.,0.0564847373139494,0.112969474627899,0.170376935406226,
0.227784396184553,0.284929081282293,0.342073766380033,0.398531458019707,
0.454989149659382),.UNSPECIFIED.);
#68=B_SPLINE_CURVE_WITH_KNOTS('',3,(#493,#494,#495,#496,#497,#498,#499,
#500,#501,#502,#503,#504,#505,#506,#507,#508,#509,#510),.UNSPECIFIED.,.F.,
 .F.,(4,2,2,2,2,2,2,2,4),(0.454989149659382,0.511593413542849,0.568197677426317,
0.625195830585994,0.68219398374567,0.739366429875336,0.796538876005002,
0.853258806148453,0.909978736291904),.UNSPECIFIED.);
#69=LINE('',#431,#94);
#70=LINE('',#473,#95);
#71=LINE('',#516,#96);
#72=LINE('',#519,#97);
#73=LINE('',#522,#98);
#74=LINE('',#524,#99);
#75=LINE('',#526,#100);
#76=LINE('',#527,#101);
#77=LINE('',#530,#102);
#78=LINE('',#531,#103);
#79=LINE('',#534,#104);
#80=LINE('',#536,#105);
#81=LINE('',#537,#106);
#82=LINE('',#542,#107);
#83=LINE('',#548,#108);
#84=LINE('',#555,#109);
#85=LINE('',#559,#110);
#86=LINE('',#560,#111);
#87=LINE('',#561,#112);
#88=LINE('',#565,#113);
#89=LINE('',#566,#114);
#90=LINE('',#567,#115);
#91=LINE('',#571,#116);
#92=LINE('',#575,#117);
#93=LINE('',#577,#118);
#94=VECTOR('',#351,1.5);
#95=VECTOR('',#356,1.5);
#96=VECTOR('',#361,10.);
#97=VECTOR('',#364,10.);
#98=VECTOR('',#367,10.);
#99=VECTOR('',#368,10.);
#100=VECTOR('',#369,10.);
#101=VECTOR('',#370,10.);
#102=VECTOR('',#373,10.);
#103=VECTOR('',#374,10.);
#104=VECTOR('',#377,10.);
#105=VECTOR('',#378,10.);
#106=VECTOR('',#379,10.);
#107=VECTOR('',#384,41.5);
#108=VECTOR('',#391,10.);
#109=VECTOR('',#400,10.);
#110=VECTOR('',#403,10.);
#111=VECTOR('',#404,10.);
#112=VECTOR('',#405,10.);
#113=VECTOR('',#408,10.);
#114=VECTOR('',#409,10.);
#115=VECTOR('',#410,10.);
#116=VECTOR('',#415,10.);
#117=VECTOR('',#420,10.);
#118=VECTOR('',#423,10.);
#119=CIRCLE('',#319,1.5);
#120=CIRCLE('',#321,1.5);
#121=CIRCLE('',#323,41.5);
#122=CIRCLE('',#324,41.5);
#123=CIRCLE('',#329,41.5);
#124=CIRCLE('',#330,41.5);
#125=CIRCLE('',#332,45.);
#126=CIRCLE('',#333,45.);
#127=CIRCLE('',#335,45.);
#128=CIRCLE('',#336,45.);
#129=CIRCLE('',#340,41.5);
#130=CIRCLE('',#342,41.5);
#131=VERTEX_POINT('',#428);
#132=VERTEX_POINT('',#430);
#133=VERTEX_POINT('',#432);
#134=VERTEX_POINT('',#470);
#135=VERTEX_POINT('',#472);
#136=VERTEX_POINT('',#474);
#137=VERTEX_POINT('',#512);
#138=VERTEX_POINT('',#513);
#139=VERTEX_POINT('',#515);
#140=VERTEX_POINT('',#517);
#141=VERTEX_POINT('',#521);
#142=VERTEX_POINT('',#523);
#143=VERTEX_POINT('',#525);
#144=VERTEX_POINT('',#529);
#145=VERTEX_POINT('',#533);
#146=VERTEX_POINT('',#535);
#147=VERTEX_POINT('',#539);
#148=VERTEX_POINT('',#541);
#149=VERTEX_POINT('',#545);
#150=VERTEX_POINT('',#547);
#151=VERTEX_POINT('',#551);
#152=VERTEX_POINT('',#553);
#153=VERTEX_POINT('',#557);
#154=VERTEX_POINT('',#558);
#155=VERTEX_POINT('',#563);
#156=VERTEX_POINT('',#564);
#157=VERTEX_POINT('',#569);
#158=VERTEX_POINT('',#573);
#159=EDGE_CURVE('',#131,#131,#119,.T.);
#160=EDGE_CURVE('',#131,#132,#69,.T.);
#161=EDGE_CURVE('',#133,#132,#65,.T.);
#162=EDGE_CURVE('',#132,#133,#66,.T.);
#163=EDGE_CURVE('',#134,#134,#120,.T.);
#164=EDGE_CURVE('',#134,#135,#70,.T.);
#165=EDGE_CURVE('',#136,#135,#67,.T.);
#166=EDGE_CURVE('',#135,#136,#68,.T.);
#167=EDGE_CURVE('',#137,#138,#121,.T.);
#168=EDGE_CURVE('',#139,#137,#71,.T.);
#169=EDGE_CURVE('',#140,#139,#122,.T.);
#170=EDGE_CURVE('',#138,#140,#72,.T.);
#171=EDGE_CURVE('',#139,#141,#73,.T.);
#172=EDGE_CURVE('',#142,#141,#74,.T.);
#173=EDGE_CURVE('',#143,#142,#75,.T.);
#174=EDGE_CURVE('',#143,#140,#76,.T.);
#175=EDGE_CURVE('',#137,#144,#77,.T.);
#176=EDGE_CURVE('',#141,#144,#78,.T.);
#177=EDGE_CURVE('',#138,#145,#79,.T.);
#178=EDGE_CURVE('',#145,#146,#80,.T.);
#179=EDGE_CURVE('',#144,#146,#81,.T.);
#180=EDGE_CURVE('',#147,#147,#123,.T.);
#181=EDGE_CURVE('',#147,#148,#82,.T.);
#182=EDGE_CURVE('',#148,#148,#124,.T.);
#183=EDGE_CURVE('',#145,#149,#125,.T.);
#184=EDGE_CURVE('',#149,#150,#83,.T.);
#185=EDGE_CURVE('',#146,#150,#126,.T.);
#186=EDGE_CURVE('',#151,#143,#127,.T.);
#187=EDGE_CURVE('',#152,#142,#128,.T.);
#188=EDGE_CURVE('',#151,#152,#84,.T.);
#189=EDGE_CURVE('',#153,#154,#85,.T.);
#190=EDGE_CURVE('',#154,#152,#86,.T.);
#191=EDGE_CURVE('',#150,#153,#87,.T.);
#192=EDGE_CURVE('',#155,#156,#88,.T.);
#193=EDGE_CURVE('',#156,#154,#89,.T.);
#194=EDGE_CURVE('',#155,#153,#90,.T.);
#195=EDGE_CURVE('',#157,#155,#129,.T.);
#196=EDGE_CURVE('',#149,#157,#91,.T.);
#197=EDGE_CURVE('',#156,#158,#130,.T.);
#198=EDGE_CURVE('',#158,#151,#92,.T.);
#199=EDGE_CURVE('',#158,#157,#93,.T.);
#200=ORIENTED_EDGE('',*,*,#159,.F.);
#201=ORIENTED_EDGE('',*,*,#160,.T.);
#202=ORIENTED_EDGE('',*,*,#161,.F.);
#203=ORIENTED_EDGE('',*,*,#162,.F.);
#204=ORIENTED_EDGE('',*,*,#160,.F.);
#205=ORIENTED_EDGE('',*,*,#163,.F.);
#206=ORIENTED_EDGE('',*,*,#164,.T.);
#207=ORIENTED_EDGE('',*,*,#165,.F.);
#208=ORIENTED_EDGE('',*,*,#166,.F.);
#209=ORIENTED_EDGE('',*,*,#164,.F.);
#210=ORIENTED_EDGE('',*,*,#167,.F.);
#211=ORIENTED_EDGE('',*,*,#168,.F.);
#212=ORIENTED_EDGE('',*,*,#169,.F.);
#213=ORIENTED_EDGE('',*,*,#170,.F.);
#214=ORIENTED_EDGE('',*,*,#161,.T.);
#215=ORIENTED_EDGE('',*,*,#162,.T.);
#216=ORIENTED_EDGE('',*,*,#169,.T.);
#217=ORIENTED_EDGE('',*,*,#171,.T.);
#218=ORIENTED_EDGE('',*,*,#172,.F.);
#219=ORIENTED_EDGE('',*,*,#173,.F.);
#220=ORIENTED_EDGE('',*,*,#174,.T.);
#221=ORIENTED_EDGE('',*,*,#168,.T.);
#222=ORIENTED_EDGE('',*,*,#175,.T.);
#223=ORIENTED_EDGE('',*,*,#176,.F.);
#224=ORIENTED_EDGE('',*,*,#171,.F.);
#225=ORIENTED_EDGE('',*,*,#167,.T.);
#226=ORIENTED_EDGE('',*,*,#177,.T.);
#227=ORIENTED_EDGE('',*,*,#178,.T.);
#228=ORIENTED_EDGE('',*,*,#179,.F.);
#229=ORIENTED_EDGE('',*,*,#175,.F.);
#230=ORIENTED_EDGE('',*,*,#180,.F.);
#231=ORIENTED_EDGE('',*,*,#181,.T.);
#232=ORIENTED_EDGE('',*,*,#182,.T.);
#233=ORIENTED_EDGE('',*,*,#181,.F.);
#234=ORIENTED_EDGE('',*,*,#183,.T.);
#235=ORIENTED_EDGE('',*,*,#184,.T.);
#236=ORIENTED_EDGE('',*,*,#185,.F.);
#237=ORIENTED_EDGE('',*,*,#178,.F.);
#238=ORIENTED_EDGE('',*,*,#186,.T.);
#239=ORIENTED_EDGE('',*,*,#173,.T.);
#240=ORIENTED_EDGE('',*,*,#187,.F.);
#241=ORIENTED_EDGE('',*,*,#188,.F.);
#242=ORIENTED_EDGE('',*,*,#189,.T.);
#243=ORIENTED_EDGE('',*,*,#190,.T.);
#244=ORIENTED_EDGE('',*,*,#187,.T.);
#245=ORIENTED_EDGE('',*,*,#172,.T.);
#246=ORIENTED_EDGE('',*,*,#176,.T.);
#247=ORIENTED_EDGE('',*,*,#179,.T.);
#248=ORIENTED_EDGE('',*,*,#185,.T.);
#249=ORIENTED_EDGE('',*,*,#191,.T.);
#250=ORIENTED_EDGE('',*,*,#159,.T.);
#251=ORIENTED_EDGE('',*,*,#163,.T.);
#252=ORIENTED_EDGE('',*,*,#180,.T.);
#253=ORIENTED_EDGE('',*,*,#192,.T.);
#254=ORIENTED_EDGE('',*,*,#193,.T.);
#255=ORIENTED_EDGE('',*,*,#189,.F.);
#256=ORIENTED_EDGE('',*,*,#194,.F.);
#257=ORIENTED_EDGE('',*,*,#195,.T.);
#258=ORIENTED_EDGE('',*,*,#194,.T.);
#259=ORIENTED_EDGE('',*,*,#191,.F.);
#260=ORIENTED_EDGE('',*,*,#184,.F.);
#261=ORIENTED_EDGE('',*,*,#196,.T.);
#262=ORIENTED_EDGE('',*,*,#197,.T.);
#263=ORIENTED_EDGE('',*,*,#198,.T.);
#264=ORIENTED_EDGE('',*,*,#188,.T.);
#265=ORIENTED_EDGE('',*,*,#190,.F.);
#266=ORIENTED_EDGE('',*,*,#193,.F.);
#267=ORIENTED_EDGE('',*,*,#199,.T.);
#268=ORIENTED_EDGE('',*,*,#196,.F.);
#269=ORIENTED_EDGE('',*,*,#183,.F.);
#270=ORIENTED_EDGE('',*,*,#177,.F.);
#271=ORIENTED_EDGE('',*,*,#170,.T.);
#272=ORIENTED_EDGE('',*,*,#174,.F.);
#273=ORIENTED_EDGE('',*,*,#186,.F.);
#274=ORIENTED_EDGE('',*,*,#198,.F.);
#275=ORIENTED_EDGE('',*,*,#182,.F.);
#276=ORIENTED_EDGE('',*,*,#192,.F.);
#277=ORIENTED_EDGE('',*,*,#195,.F.);
#278=ORIENTED_EDGE('',*,*,#199,.F.);
#279=ORIENTED_EDGE('',*,*,#197,.F.);
#280=ORIENTED_EDGE('',*,*,#165,.T.);
#281=ORIENTED_EDGE('',*,*,#166,.T.);
#282=CYLINDRICAL_SURFACE('',#318,1.5);
#283=CYLINDRICAL_SURFACE('',#320,1.5);
#284=CYLINDRICAL_SURFACE('',#322,41.5);
#285=CYLINDRICAL_SURFACE('',#328,41.5);
#286=CYLINDRICAL_SURFACE('',#331,45.);
#287=CYLINDRICAL_SURFACE('',#334,45.);
#288=CYLINDRICAL_SURFACE('',#344,41.5);
#289=ADVANCED_FACE('',(#29),#282,.F.);
#290=ADVANCED_FACE('',(#30),#283,.F.);
#291=ADVANCED_FACE('',(#31,#23),#284,.F.);
#292=ADVANCED_FACE('',(#32),#15,.T.);
#293=ADVANCED_FACE('',(#33),#16,.T.);
#294=ADVANCED_FACE('',(#34),#17,.T.);
#295=ADVANCED_FACE('',(#35),#285,.F.);
#296=ADVANCED_FACE('',(#36),#286,.T.);
#297=ADVANCED_FACE('',(#37),#287,.T.);
#298=ADVANCED_FACE('',(#38,#24,#25,#26),#18,.T.);
#299=ADVANCED_FACE('',(#39),#19,.T.);
#300=ADVANCED_FACE('',(#40),#20,.T.);
#301=ADVANCED_FACE('',(#41),#21,.T.);
#302=ADVANCED_FACE('',(#42,#27),#22,.F.);
#303=ADVANCED_FACE('',(#43,#28),#288,.F.);
#304=CLOSED_SHELL('',(#289,#290,#291,#292,#293,#294,#295,#296,#297,#298,
#299,#300,#301,#302,#303));
#305=DERIVED_UNIT_ELEMENT(#307,1.);
#306=DERIVED_UNIT_ELEMENT(#584,-3.);
#307=(
MASS_UNIT()
NAMED_UNIT(*)
SI_UNIT(.KILO.,.GRAM.)
);
#308=DERIVED_UNIT((#305,#306));
#309=MEASURE_REPRESENTATION_ITEM('density measure',
POSITIVE_RATIO_MEASURE(7850.),#308);
#310=PROPERTY_DEFINITION_REPRESENTATION(#315,#312);
#311=PROPERTY_DEFINITION_REPRESENTATION(#316,#313);
#312=REPRESENTATION('material name',(#314),#581);
#313=REPRESENTATION('density',(#309),#581);
#314=DESCRIPTIVE_REPRESENTATION_ITEM('Steel','Steel');
#315=PROPERTY_DEFINITION('material property','material name',#591);
#316=PROPERTY_DEFINITION('material property','density of part',#591);
#317=AXIS2_PLACEMENT_3D('',#426,#345,#346);
#318=AXIS2_PLACEMENT_3D('',#427,#347,#348);
#319=AXIS2_PLACEMENT_3D('',#429,#349,#350);
#320=AXIS2_PLACEMENT_3D('',#469,#352,#353);
#321=AXIS2_PLACEMENT_3D('',#471,#354,#355);
#322=AXIS2_PLACEMENT_3D('',#511,#357,#358);
#323=AXIS2_PLACEMENT_3D('',#514,#359,#360);
#324=AXIS2_PLACEMENT_3D('',#518,#362,#363);
#325=AXIS2_PLACEMENT_3D('',#520,#365,#366);
#326=AXIS2_PLACEMENT_3D('',#528,#371,#372);
#327=AXIS2_PLACEMENT_3D('',#532,#375,#376);
#328=AXIS2_PLACEMENT_3D('',#538,#380,#381);
#329=AXIS2_PLACEMENT_3D('',#540,#382,#383);
#330=AXIS2_PLACEMENT_3D('',#543,#385,#386);
#331=AXIS2_PLACEMENT_3D('',#544,#387,#388);
#332=AXIS2_PLACEMENT_3D('',#546,#389,#390);
#333=AXIS2_PLACEMENT_3D('',#549,#392,#393);
#334=AXIS2_PLACEMENT_3D('',#550,#394,#395);
#335=AXIS2_PLACEMENT_3D('',#552,#396,#397);
#336=AXIS2_PLACEMENT_3D('',#554,#398,#399);
#337=AXIS2_PLACEMENT_3D('',#556,#401,#402);
#338=AXIS2_PLACEMENT_3D('',#562,#406,#407);
#339=AXIS2_PLACEMENT_3D('',#568,#411,#412);
#340=AXIS2_PLACEMENT_3D('',#570,#413,#414);
#341=AXIS2_PLACEMENT_3D('',#572,#416,#417);
#342=AXIS2_PLACEMENT_3D('',#574,#418,#419);
#343=AXIS2_PLACEMENT_3D('',#576,#421,#422);
#344=AXIS2_PLACEMENT_3D('',#578,#424,#425);
#345=DIRECTION('axis',(0.,0.,1.));
#346=DIRECTION('refdir',(1.,0.,0.));
#347=DIRECTION('center_axis',(4.28415473031825E-15,-1.,-1.11348838646229E-15));
#348=DIRECTION('ref_axis',(-1.,-4.28415473031825E-15,-2.1094237467878E-15));
#349=DIRECTION('center_axis',(0.,-1.,0.));
#350=DIRECTION('ref_axis',(-1.,-4.28415473031825E-15,-2.1094237467878E-15));
#351=DIRECTION('',(4.28415473031825E-15,-1.,-1.11348838646229E-15));
#352=DIRECTION('center_axis',(4.28415473031825E-15,-1.,-1.11348838646229E-15));
#353=DIRECTION('ref_axis',(-1.,-4.28415473031825E-15,-2.1094237467878E-15));
#354=DIRECTION('center_axis',(0.,-1.,0.));
#355=DIRECTION('ref_axis',(-1.,-4.28415473031825E-15,-2.1094237467878E-15));
#356=DIRECTION('',(4.28415473031825E-15,-1.,-1.11348838646229E-15));
#357=DIRECTION('center_axis',(1.00475029784236E-14,-6.47386310778753E-16,
-1.));
#358=DIRECTION('ref_axis',(-1.,4.38538094726938E-15,-1.00475029784236E-14));
#359=DIRECTION('center_axis',(0.,0.,-1.));
#360=DIRECTION('ref_axis',(-1.,4.38538094726938E-15,-1.00475029784236E-14));
#361=DIRECTION('',(-1.00475029784236E-14,6.47386310778753E-16,1.));
#362=DIRECTION('center_axis',(0.,0.,1.));
#363=DIRECTION('ref_axis',(-1.,4.38538094726938E-15,-1.00475029784236E-14));
#364=DIRECTION('',(1.00475029784236E-14,-6.47386310778753E-16,-1.));
#365=DIRECTION('center_axis',(0.,0.,-1.));
#366=DIRECTION('ref_axis',(-1.,0.,0.));
#367=DIRECTION('',(0.,1.,0.));
#368=DIRECTION('',(-1.,0.,0.));
#369=DIRECTION('',(0.,1.,0.));
#370=DIRECTION('',(-1.,0.,0.));
#371=DIRECTION('center_axis',(-1.,0.,0.));
#372=DIRECTION('ref_axis',(0.,0.,1.));
#373=DIRECTION('',(0.,1.,0.));
#374=DIRECTION('',(0.,0.,1.));
#375=DIRECTION('center_axis',(0.,0.,1.));
#376=DIRECTION('ref_axis',(1.,0.,0.));
#377=DIRECTION('',(1.,0.,0.));
#378=DIRECTION('',(0.,1.,0.));
#379=DIRECTION('',(1.,0.,0.));
#380=DIRECTION('center_axis',(0.,1.,0.));
#381=DIRECTION('ref_axis',(1.,0.,0.));
#382=DIRECTION('center_axis',(0.,-1.,0.));
#383=DIRECTION('ref_axis',(1.,0.,0.));
#384=DIRECTION('',(0.,-1.,0.));
#385=DIRECTION('center_axis',(0.,-1.,0.));
#386=DIRECTION('ref_axis',(1.,0.,0.));
#387=DIRECTION('center_axis',(0.,1.,0.));
#388=DIRECTION('ref_axis',(1.,0.,0.));
#389=DIRECTION('center_axis',(0.,1.,0.));
#390=DIRECTION('ref_axis',(1.,0.,0.));
#391=DIRECTION('',(0.,1.,0.));
#392=DIRECTION('center_axis',(0.,1.,0.));
#393=DIRECTION('ref_axis',(1.,0.,0.));
#394=DIRECTION('center_axis',(0.,1.,0.));
#395=DIRECTION('ref_axis',(1.,0.,0.));
#396=DIRECTION('center_axis',(0.,1.,0.));
#397=DIRECTION('ref_axis',(1.,0.,0.));
#398=DIRECTION('center_axis',(0.,1.,0.));
#399=DIRECTION('ref_axis',(1.,0.,0.));
#400=DIRECTION('',(0.,1.,0.));
#401=DIRECTION('center_axis',(0.,1.,0.));
#402=DIRECTION('ref_axis',(1.,0.,0.));
#403=DIRECTION('',(0.,0.,-1.));
#404=DIRECTION('',(-1.,0.,0.));
#405=DIRECTION('',(1.,0.,0.));
#406=DIRECTION('center_axis',(1.,0.,0.));
#407=DIRECTION('ref_axis',(0.,0.,-1.));
#408=DIRECTION('',(9.92891595122399E-15,-6.47514672052689E-16,-1.));
#409=DIRECTION('',(0.,1.,0.));
#410=DIRECTION('',(0.,1.,0.));
#411=DIRECTION('center_axis',(0.,0.,1.));
#412=DIRECTION('ref_axis',(1.,0.,0.));
#413=DIRECTION('center_axis',(0.,0.,-1.));
#414=DIRECTION('ref_axis',(1.,-4.2188474935756E-15,9.92891595122399E-15));
#415=DIRECTION('',(1.,0.,0.));
#416=DIRECTION('center_axis',(0.,0.,-1.));
#417=DIRECTION('ref_axis',(-1.,0.,0.));
#418=DIRECTION('center_axis',(0.,0.,1.));
#419=DIRECTION('ref_axis',(1.,-4.2188474935756E-15,9.92891595122399E-15));
#420=DIRECTION('',(-1.,0.,0.));
#421=DIRECTION('center_axis',(0.,1.,0.));
#422=DIRECTION('ref_axis',(1.,0.,0.));
#423=DIRECTION('',(-9.92891595122399E-15,6.47514672052689E-16,1.));
#424=DIRECTION('center_axis',(9.92891595122399E-15,-6.47514672052689E-16,
-1.));
#425=DIRECTION('ref_axis',(1.,-4.2188474935756E-15,9.92891595122399E-15));
#426=CARTESIAN_POINT('',(0.,0.,0.));
#427=CARTESIAN_POINT('Origin',(-92.7865651733335,14.9999999999984,0.252774757092595));
#428=CARTESIAN_POINT('',(-91.2865651733334,14.9999999999984,0.252774757092595));
#429=CARTESIAN_POINT('Origin',(-92.7865651733335,14.9999999999996,0.252774757092595));
#430=CARTESIAN_POINT('',(-91.2865651733334,9.33517901327135,0.252774757092592));
#431=CARTESIAN_POINT('',(-91.2865651733335,14.9999999999984,0.252774757092599));
#432=CARTESIAN_POINT('',(-94.2865651733334,9.79594329978574,0.252774757092595));
#433=CARTESIAN_POINT('Ctrl Pts',(-94.2865651733334,9.79594329978574,0.252774757092594));
#434=CARTESIAN_POINT('Ctrl Pts',(-94.2865651733334,9.79594329978574,0.440980505288551));
#435=CARTESIAN_POINT('Ctrl Pts',(-94.2489685686858,9.79162349906072,0.641647899127046));
#436=CARTESIAN_POINT('Ctrl Pts',(-94.0963748183986,9.77344301592774,1.01056410181661));
#437=CARTESIAN_POINT('Ctrl Pts',(-93.9813845455884,9.75950818897767,1.1788120957966));
#438=CARTESIAN_POINT('Ctrl Pts',(-93.7152959350937,9.72568331565081,1.44582662277867));
#439=CARTESIAN_POINT('Ctrl Pts',(-93.5459655525649,9.70344826394206,1.56177701654883));
#440=CARTESIAN_POINT('Ctrl Pts',(-93.1756250118235,9.65189726869337,1.71524126497095));
#441=CARTESIAN_POINT('Ctrl Pts',(-92.9746330882828,9.62250881646996,1.75277475709258));
#442=CARTESIAN_POINT('Ctrl Pts',(-92.5976742654098,9.56465206518651,1.75277475709258));
#443=CARTESIAN_POINT('Ctrl Pts',(-92.3963005051018,9.53227241735801,1.71494632169887));
#444=CARTESIAN_POINT('Ctrl Pts',(-92.0257534604216,9.47006044321077,1.56098640871716));
#445=CARTESIAN_POINT('Ctrl Pts',(-91.8565692522733,9.44030092220347,1.44485181192932));
#446=CARTESIAN_POINT('Ctrl Pts',(-91.591193251683,9.39248201516403,1.17796464637091));
#447=CARTESIAN_POINT('Ctrl Pts',(-91.4765245360596,9.37112505396025,1.01009342939716));
#448=CARTESIAN_POINT('Ctrl Pts',(-91.3241997229865,9.34243250248978,0.641651742310413));
#449=CARTESIAN_POINT('Ctrl Pts',(-91.2865651733334,9.33517901327135,0.441065975087613));
#450=CARTESIAN_POINT('Ctrl Pts',(-91.2865651733334,9.33517901327135,0.252774757092593));
#451=CARTESIAN_POINT('Ctrl Pts',(-91.2865651733334,9.33517901327135,0.252774757092595));
#452=CARTESIAN_POINT('Ctrl Pts',(-91.2865651733334,9.33517901327135,0.0637649609429151));
#453=CARTESIAN_POINT('Ctrl Pts',(-91.3244850223632,9.34248782796325,-0.137534793205624));
#454=CARTESIAN_POINT('Ctrl Pts',(-91.4778761364884,9.37137804491037,-0.507062686629418));
#455=CARTESIAN_POINT('Ctrl Pts',(-91.5933258552511,9.39287625925155,-0.675306268384738));
#456=CARTESIAN_POINT('Ctrl Pts',(-91.8594485848001,9.44080949219625,-0.941428997933677));
#457=CARTESIAN_POINT('Ctrl Pts',(-92.0282564499581,9.47048972645782,-1.05678158830354));
#458=CARTESIAN_POINT('Ctrl Pts',(-92.3977188015576,9.53250139103576,-1.20967813048089));
#459=CARTESIAN_POINT('Ctrl Pts',(-92.5983840308109,9.56476100207242,-1.24722524290739));
#460=CARTESIAN_POINT('Ctrl Pts',(-92.9742004623631,9.62244241576857,-1.24722524290739));
#461=CARTESIAN_POINT('Ctrl Pts',(-93.1747581893847,9.6517710918246,-1.20986298073044));
#462=CARTESIAN_POINT('Ctrl Pts',(-93.5444334776611,9.7032404812641,-1.05704912789027));
#463=CARTESIAN_POINT('Ctrl Pts',(-93.7135328941411,9.72545308428503,-0.941577865659401));
#464=CARTESIAN_POINT('Ctrl Pts',(-93.9800804650069,9.75934840977491,-0.675030294793559));
#465=CARTESIAN_POINT('Ctrl Pts',(-94.0955490970777,9.77334369156234,-0.506553702845339));
#466=CARTESIAN_POINT('Ctrl Pts',(-94.2487948739143,9.79160374380909,-0.136972519531189));
#467=CARTESIAN_POINT('Ctrl Pts',(-94.2865651733334,9.79594329978574,0.0641312114632256));
#468=CARTESIAN_POINT('Ctrl Pts',(-94.2865651733334,9.79594329978574,0.252774757092594));
#469=CARTESIAN_POINT('Origin',(92.8189611434926,14.9999999999991,0.252774757092951));
#470=CARTESIAN_POINT('',(94.3189611434926,14.9999999999991,0.252774757092951));
#471=CARTESIAN_POINT('Origin',(92.8189611434926,15.0000000000004,0.252774757092951));
#472=CARTESIAN_POINT('',(94.3189611434926,9.75958247423426,0.252774757092949));
#473=CARTESIAN_POINT('',(94.3189611434926,14.9999999999992,0.252774757092954));
#474=CARTESIAN_POINT('',(91.3189611434926,9.27609197557326,0.252774757092949));
#475=CARTESIAN_POINT('Ctrl Pts',(91.3189611434926,9.27609197557326,0.25277475709295));
#476=CARTESIAN_POINT('Ctrl Pts',(91.3189611434926,9.27609197557326,0.441057214806115));
#477=CARTESIAN_POINT('Ctrl Pts',(91.3565935449655,9.28363567299033,0.641613012822207));
#478=CARTESIAN_POINT('Ctrl Pts',(91.508848989989,9.31348849670327,1.00995396396169));
#479=CARTESIAN_POINT('Ctrl Pts',(91.6234487292239,9.33571462262808,1.17775547171376));
#480=CARTESIAN_POINT('Ctrl Pts',(91.8887466566045,9.38555642038964,1.44470085167422));
#481=CARTESIAN_POINT('Ctrl Pts',(92.0579864174541,9.41662174087929,1.56090037115816));
#482=CARTESIAN_POINT('Ctrl Pts',(92.4286261945873,9.48167553302254,1.71493541566828));
#483=CARTESIAN_POINT('Ctrl Pts',(92.6300374035772,9.51559117752829,1.75277475709294));
#484=CARTESIAN_POINT('Ctrl Pts',(93.0070201079302,9.57630524147611,1.75277475709293));
#485=CARTESIAN_POINT('Ctrl Pts',(93.208029885416,9.60721303837623,1.7152454174916));
#486=CARTESIAN_POINT('Ctrl Pts',(93.5784527801758,9.66156141469634,1.56173135655433));
#487=CARTESIAN_POINT('Ctrl Pts',(93.747846453153,9.6850743621366,1.44572534719311));
#488=CARTESIAN_POINT('Ctrl Pts',(94.0138929598963,9.72088399171236,1.17864601229791));
#489=CARTESIAN_POINT('Ctrl Pts',(94.1288306678759,9.73567083356385,1.0104484876727));
#490=CARTESIAN_POINT('Ctrl Pts',(94.2813686916395,9.75498297788429,0.641608694661911));
#491=CARTESIAN_POINT('Ctrl Pts',(94.3189611434926,9.75958247423426,0.44096706255853));
#492=CARTESIAN_POINT('Ctrl Pts',(94.3189611434926,9.75958247423426,0.252774757092949));
#493=CARTESIAN_POINT('Ctrl Pts',(94.3189611434926,9.75958247423426,0.252774757092951));
#494=CARTESIAN_POINT('Ctrl Pts',(94.3189611434926,9.75958247423426,0.0640938774813918));
#495=CARTESIAN_POINT('Ctrl Pts',(94.2811748351925,9.75495948515962,-0.13703459203505));
#496=CARTESIAN_POINT('Ctrl Pts',(94.1279094429646,9.73555314324499,-0.506616145556155));
#497=CARTESIAN_POINT('Ctrl Pts',(94.0124381902147,9.72069487811631,-0.67506853974459));
#498=CARTESIAN_POINT('Ctrl Pts',(93.7458802141474,9.68480285964031,-0.941626515811914));
#499=CARTESIAN_POINT('Ctrl Pts',(93.576744318365,9.66131687758313,-1.05709803823284));
#500=CARTESIAN_POINT('Ctrl Pts',(93.2070634832181,9.60706507545194,-1.20988673725829));
#501=CARTESIAN_POINT('Ctrl Pts',(93.0065378820769,9.57622757772402,-1.24722524290704));
#502=CARTESIAN_POINT('Ctrl Pts',(92.6308108195366,9.51571573821895,-1.24722524290703));
#503=CARTESIAN_POINT('Ctrl Pts',(92.4301717922731,9.48193680061362,-1.20969243294874));
#504=CARTESIAN_POINT('Ctrl Pts',(92.0607144645881,9.41711045788555,-1.05681655614359));
#505=CARTESIAN_POINT('Ctrl Pts',(91.8918851781412,9.38613480662237,-0.941469621115294));
#506=CARTESIAN_POINT('Ctrl Pts',(91.6257740751077,9.33616237814182,-0.675358518081703));
#507=CARTESIAN_POINT('Ctrl Pts',(91.5103229626909,9.31377574332376,-0.507151301415862));
#508=CARTESIAN_POINT('Ctrl Pts',(91.3569048460894,9.2836984458502,-0.137626141591127));
#509=CARTESIAN_POINT('Ctrl Pts',(91.3189611434926,9.27609197557325,0.0637083232814502));
#510=CARTESIAN_POINT('Ctrl Pts',(91.3189611434926,9.27609197557325,0.252774757092953));
#511=CARTESIAN_POINT('Origin',(-99.0823838040946,-31.4260183670353,353.880591277781));
#512=CARTESIAN_POINT('',(-100.,10.0638355796466,10.));
#513=CARTESIAN_POINT('',(-71.9778570678659,-5.78982410707982E-16,10.));
#514=CARTESIAN_POINT('Origin',(-99.0823838040912,-31.4260183670355,10.));
#515=CARTESIAN_POINT('',(-100.,10.0638355796465,-10.));
#516=CARTESIAN_POINT('',(-100.,10.0638355796469,353.880591277781));
#517=CARTESIAN_POINT('',(-71.9778570678657,-2.04032330781143E-16,-10.));
#518=CARTESIAN_POINT('Origin',(-99.082383804091,-31.4260183670355,-10.0000000000006));
#519=CARTESIAN_POINT('',(-71.9778570678691,0.,353.880591277782));
#520=CARTESIAN_POINT('Origin',(-43.8748219369606,0.,-10.));
#521=CARTESIAN_POINT('',(-100.,15.,-10.));
#522=CARTESIAN_POINT('',(-100.,0.,-10.));
#523=CARTESIAN_POINT('',(-43.8748219369606,15.,-10.));
#524=CARTESIAN_POINT('',(100.,15.,-10.));
#525=CARTESIAN_POINT('',(-43.8748219369606,0.,-10.));
#526=CARTESIAN_POINT('',(-43.8748219369606,0.,-10.));
#527=CARTESIAN_POINT('',(100.,0.,-10.));
#528=CARTESIAN_POINT('Origin',(-100.,0.,-10.));
#529=CARTESIAN_POINT('',(-100.,15.,10.));
#530=CARTESIAN_POINT('',(-100.,0.,10.));
#531=CARTESIAN_POINT('',(-100.,15.,-10.));
#532=CARTESIAN_POINT('Origin',(-100.,0.,10.));
#533=CARTESIAN_POINT('',(-43.8748219369606,0.,10.));
#534=CARTESIAN_POINT('',(-100.,0.,10.));
#535=CARTESIAN_POINT('',(-43.8748219369606,15.,10.));
#536=CARTESIAN_POINT('',(-43.8748219369606,0.,10.));
#537=CARTESIAN_POINT('',(-100.,15.,10.));
#538=CARTESIAN_POINT('Origin',(0.,0.,0.));
#539=CARTESIAN_POINT('',(-41.5,15.,5.08228421646152E-15));
#540=CARTESIAN_POINT('Origin',(0.,15.,0.));
#541=CARTESIAN_POINT('',(-41.5,0.,5.08228421646152E-15));
#542=CARTESIAN_POINT('',(-41.5,0.,5.08228421646152E-15));
#543=CARTESIAN_POINT('Origin',(0.,0.,0.));
#544=CARTESIAN_POINT('Origin',(0.,0.,0.));
#545=CARTESIAN_POINT('',(43.8748219369606,0.,10.));
#546=CARTESIAN_POINT('Origin',(0.,0.,0.));
#547=CARTESIAN_POINT('',(43.8748219369606,15.,10.));
#548=CARTESIAN_POINT('',(43.8748219369606,0.,10.));
#549=CARTESIAN_POINT('Origin',(0.,15.,0.));
#550=CARTESIAN_POINT('Origin',(0.,0.,0.));
#551=CARTESIAN_POINT('',(43.8748219369606,0.,-10.));
#552=CARTESIAN_POINT('Origin',(0.,0.,0.));
#553=CARTESIAN_POINT('',(43.8748219369606,15.,-10.));
#554=CARTESIAN_POINT('Origin',(0.,15.,0.));
#555=CARTESIAN_POINT('',(43.8748219369606,0.,-10.));
#556=CARTESIAN_POINT('Origin',(0.,15.,0.));
#557=CARTESIAN_POINT('',(100.,15.,10.));
#558=CARTESIAN_POINT('',(100.,15.,-10.));
#559=CARTESIAN_POINT('',(100.,15.,10.));
#560=CARTESIAN_POINT('',(100.,15.,-10.));
#561=CARTESIAN_POINT('',(-100.,15.,10.));
#562=CARTESIAN_POINT('Origin',(100.,0.,10.));
#563=CARTESIAN_POINT('',(100.,10.0698950354271,10.));
#564=CARTESIAN_POINT('',(100.,10.0698950354271,-10.));
#565=CARTESIAN_POINT('',(100.,10.0698950354272,353.880591277784));
#566=CARTESIAN_POINT('',(100.,0.,-10.));
#567=CARTESIAN_POINT('',(100.,0.,10.));
#568=CARTESIAN_POINT('Origin',(43.8748219369606,0.,10.));
#569=CARTESIAN_POINT('',(72.3130894596853,-6.23123361487609E-16,10.));
#570=CARTESIAN_POINT('Origin',(99.4176161959096,-31.4260183670362,10.0000000000006));
#571=CARTESIAN_POINT('',(-100.,0.,10.));
#572=CARTESIAN_POINT('Origin',(100.,0.,-10.));
#573=CARTESIAN_POINT('',(72.3130894596855,-2.50740507039506E-16,-10.));
#574=CARTESIAN_POINT('Origin',(99.4176161959098,-31.4260183670362,-10.));
#575=CARTESIAN_POINT('',(100.,0.,-10.));
#576=CARTESIAN_POINT('Origin',(0.,0.,0.));
#577=CARTESIAN_POINT('',(72.3130894596816,0.,353.880591277783));
#578=CARTESIAN_POINT('Origin',(99.4176161959062,-31.426018367036,353.880591277784));
#579=UNCERTAINTY_MEASURE_WITH_UNIT(LENGTH_MEASURE(0.01),#583,
'DISTANCE_ACCURACY_VALUE',
'Maximum model space distance between geometric entities at asserted c
onnectivities');
#580=UNCERTAINTY_MEASURE_WITH_UNIT(LENGTH_MEASURE(0.01),#583,
'DISTANCE_ACCURACY_VALUE',
'Maximum model space distance between geometric entities at asserted c
onnectivities');
#581=(
GEOMETRIC_REPRESENTATION_CONTEXT(3)
GLOBAL_UNCERTAINTY_ASSIGNED_CONTEXT((#579))
GLOBAL_UNIT_ASSIGNED_CONTEXT((#583,#585,#586))
REPRESENTATION_CONTEXT('','3D')
);
#582=(
GEOMETRIC_REPRESENTATION_CONTEXT(3)
GLOBAL_UNCERTAINTY_ASSIGNED_CONTEXT((#580))
GLOBAL_UNIT_ASSIGNED_CONTEXT((#583,#585,#586))
REPRESENTATION_CONTEXT('','3D')
);
#583=(
LENGTH_UNIT()
NAMED_UNIT(*)
SI_UNIT(.MILLI.,.METRE.)
);
#584=(
LENGTH_UNIT()
NAMED_UNIT(*)
SI_UNIT($,.METRE.)
);
#585=(
NAMED_UNIT(*)
PLANE_ANGLE_UNIT()
SI_UNIT($,.RADIAN.)
);
#586=(
NAMED_UNIT(*)
SI_UNIT($,.STERADIAN.)
SOLID_ANGLE_UNIT()
);
#587=SHAPE_DEFINITION_REPRESENTATION(#588,#589);
#588=PRODUCT_DEFINITION_SHAPE('',$,#591);
#589=SHAPE_REPRESENTATION('',(#317),#581);
#590=PRODUCT_DEFINITION_CONTEXT('part definition',#595,'design');
#591=PRODUCT_DEFINITION('2026-09-25-20-56-07-103','FusionComponent',#592,
#590);
#592=PRODUCT_DEFINITION_FORMATION('',$,#597);
#593=PRODUCT_RELATED_PRODUCT_CATEGORY('FusionComponent',
'FusionComponent',(#597));
#594=APPLICATION_PROTOCOL_DEFINITION('international standard',
'automotive_design',2009,#595);
#595=APPLICATION_CONTEXT(
'Core Data for Automotive Mechanical Design Process');
#596=PRODUCT_CONTEXT('part definition',#595,'mechanical');
#597=PRODUCT('2026-09-25-20-56-07-103','FusionComponent',$,(#596));
#598=PRESENTATION_STYLE_ASSIGNMENT((#600));
#599=PRESENTATION_STYLE_ASSIGNMENT((#601));
#600=SURFACE_STYLE_USAGE(.BOTH.,#602);
#601=SURFACE_STYLE_USAGE(.BOTH.,#603);
#602=SURFACE_SIDE_STYLE('',(#604));
#603=SURFACE_SIDE_STYLE('',(#605));
#604=SURFACE_STYLE_FILL_AREA(#606);
#605=SURFACE_STYLE_FILL_AREA(#607);
#606=FILL_AREA_STYLE('Steel - Satin',(#608));
#607=FILL_AREA_STYLE('ABS (White)',(#609));
#608=FILL_AREA_STYLE_COLOUR('Steel - Satin',#610);
#609=FILL_AREA_STYLE_COLOUR('ABS (White)',#611);
#610=COLOUR_RGB('Steel - Satin',0.627450980392157,0.627450980392157,0.627450980392157);
#611=COLOUR_RGB('ABS (White)',0.207843137254902,0.435294117647059,0.803921568627451);
ENDSEC;
END-ISO-10303-21;
