ISO-10303-21;
HEADER;
/* Generated by software containing ST-Developer
 * from STEP Tools, Inc. (www.steptools.com) 
 */

FILE_DESCRIPTION(
/* description */ (''),
/* implementation_level */ '2;1');

FILE_NAME(
/* name */ 'Component5.step',
/* time_stamp */ '2026-09-25T21:00:39+05:30',
/* author */ (''),
/* organization */ (''),
/* preprocessor_version */ 'ST-DEVELOPER v20.2',
/* originating_system */ 'Autodesk Translation Framework v15.15.0.0',
/* authorisation */ '');

FILE_SCHEMA (('AUTOMOTIVE_DESIGN { 1 0 10303 214 3 1 1 }'));
ENDSEC;

DATA;
#10=MECHANICAL_DESIGN_GEOMETRIC_PRESENTATION_REPRESENTATION('',(#13),#1354);
#11=SHAPE_REPRESENTATION_RELATIONSHIP('SRR','None',#1361,#12);
#12=ADVANCED_BREP_SHAPE_REPRESENTATION('',(#14),#1353);
#13=STYLED_ITEM('',(#1370),#14);
#14=MANIFOLD_SOLID_BREP('Body1',#814);
#15=CYLINDRICAL_SURFACE('',#867,37.5);
#16=CYLINDRICAL_SURFACE('',#869,37.5);
#17=CYLINDRICAL_SURFACE('',#871,37.5);
#18=CYLINDRICAL_SURFACE('',#872,40.);
#19=CYLINDRICAL_SURFACE('',#890,37.5);
#20=CIRCLE('',#830,37.5);
#21=CIRCLE('',#831,40.);
#22=CIRCLE('',#834,40.);
#23=CIRCLE('',#835,37.5);
#24=CIRCLE('',#837,40.);
#25=CIRCLE('',#838,40.);
#26=CIRCLE('',#839,40.);
#27=CIRCLE('',#840,40.);
#28=CIRCLE('',#841,40.);
#29=CIRCLE('',#845,37.5);
#30=CIRCLE('',#846,40.);
#31=CIRCLE('',#848,37.5);
#32=CIRCLE('',#849,40.);
#33=CIRCLE('',#853,37.5);
#34=CIRCLE('',#854,40.);
#35=CIRCLE('',#856,37.5);
#36=CIRCLE('',#857,40.);
#37=CIRCLE('',#861,37.5);
#38=CIRCLE('',#862,40.);
#39=CIRCLE('',#864,37.5);
#40=CIRCLE('',#865,40.);
#41=CIRCLE('',#873,40.);
#42=CIRCLE('',#874,40.);
#43=CIRCLE('',#875,40.);
#44=CIRCLE('',#876,40.);
#45=CIRCLE('',#877,40.);
#46=FACE_OUTER_BOUND('',#85,.T.);
#47=FACE_OUTER_BOUND('',#86,.T.);
#48=FACE_OUTER_BOUND('',#87,.T.);
#49=FACE_OUTER_BOUND('',#88,.T.);
#50=FACE_OUTER_BOUND('',#89,.T.);
#51=FACE_OUTER_BOUND('',#90,.T.);
#52=FACE_OUTER_BOUND('',#91,.T.);
#53=FACE_OUTER_BOUND('',#92,.T.);
#54=FACE_OUTER_BOUND('',#93,.T.);
#55=FACE_OUTER_BOUND('',#94,.T.);
#56=FACE_OUTER_BOUND('',#95,.T.);
#57=FACE_OUTER_BOUND('',#96,.T.);
#58=FACE_OUTER_BOUND('',#97,.T.);
#59=FACE_OUTER_BOUND('',#98,.T.);
#60=FACE_OUTER_BOUND('',#99,.T.);
#61=FACE_OUTER_BOUND('',#100,.T.);
#62=FACE_OUTER_BOUND('',#101,.T.);
#63=FACE_OUTER_BOUND('',#102,.T.);
#64=FACE_OUTER_BOUND('',#103,.T.);
#65=FACE_OUTER_BOUND('',#104,.T.);
#66=FACE_OUTER_BOUND('',#105,.T.);
#67=FACE_OUTER_BOUND('',#106,.T.);
#68=FACE_OUTER_BOUND('',#107,.T.);
#69=FACE_OUTER_BOUND('',#108,.T.);
#70=FACE_OUTER_BOUND('',#109,.T.);
#71=FACE_OUTER_BOUND('',#110,.T.);
#72=FACE_OUTER_BOUND('',#111,.T.);
#73=FACE_OUTER_BOUND('',#112,.T.);
#74=FACE_OUTER_BOUND('',#113,.T.);
#75=FACE_OUTER_BOUND('',#114,.T.);
#76=FACE_OUTER_BOUND('',#115,.T.);
#77=FACE_OUTER_BOUND('',#116,.T.);
#78=FACE_OUTER_BOUND('',#117,.T.);
#79=FACE_OUTER_BOUND('',#118,.T.);
#80=FACE_OUTER_BOUND('',#119,.T.);
#81=FACE_OUTER_BOUND('',#120,.T.);
#82=FACE_OUTER_BOUND('',#121,.T.);
#83=FACE_OUTER_BOUND('',#122,.T.);
#84=FACE_OUTER_BOUND('',#123,.T.);
#85=EDGE_LOOP('',(#503,#504,#505,#506));
#86=EDGE_LOOP('',(#507,#508,#509,#510));
#87=EDGE_LOOP('',(#511,#512,#513,#514));
#88=EDGE_LOOP('',(#515,#516,#517,#518));
#89=EDGE_LOOP('',(#519,#520,#521,#522,#523,#524,#525,#526,#527,#528,#529,
#530,#531,#532,#533,#534,#535,#536,#537,#538,#539));
#90=EDGE_LOOP('',(#540,#541,#542,#543));
#91=EDGE_LOOP('',(#544,#545,#546,#547));
#92=EDGE_LOOP('',(#548,#549,#550,#551));
#93=EDGE_LOOP('',(#552,#553,#554,#555));
#94=EDGE_LOOP('',(#556,#557,#558,#559));
#95=EDGE_LOOP('',(#560,#561,#562,#563));
#96=EDGE_LOOP('',(#564,#565,#566,#567));
#97=EDGE_LOOP('',(#568,#569,#570,#571));
#98=EDGE_LOOP('',(#572,#573,#574,#575));
#99=EDGE_LOOP('',(#576,#577,#578,#579));
#100=EDGE_LOOP('',(#580,#581,#582,#583));
#101=EDGE_LOOP('',(#584,#585,#586,#587));
#102=EDGE_LOOP('',(#588,#589,#590,#591));
#103=EDGE_LOOP('',(#592,#593,#594,#595,#596,#597,#598,#599));
#104=EDGE_LOOP('',(#600,#601,#602,#603));
#105=EDGE_LOOP('',(#604,#605,#606,#607,#608,#609,#610,#611));
#106=EDGE_LOOP('',(#612,#613,#614,#615));
#107=EDGE_LOOP('',(#616,#617,#618,#619,#620,#621,#622,#623));
#108=EDGE_LOOP('',(#624,#625,#626,#627,#628,#629,#630,#631,#632,#633,#634,
#635,#636,#637,#638,#639,#640,#641,#642,#643,#644,#645,#646,#647,#648,#649,
#650,#651,#652,#653,#654,#655,#656,#657,#658,#659));
#109=EDGE_LOOP('',(#660,#661,#662,#663));
#110=EDGE_LOOP('',(#664,#665,#666,#667));
#111=EDGE_LOOP('',(#668,#669,#670,#671));
#112=EDGE_LOOP('',(#672,#673,#674,#675,#676,#677,#678,#679,#680,#681,#682,
#683,#684,#685,#686,#687,#688,#689,#690,#691,#692));
#113=EDGE_LOOP('',(#693,#694,#695,#696));
#114=EDGE_LOOP('',(#697,#698,#699,#700));
#115=EDGE_LOOP('',(#701,#702,#703,#704));
#116=EDGE_LOOP('',(#705,#706,#707,#708));
#117=EDGE_LOOP('',(#709,#710,#711,#712));
#118=EDGE_LOOP('',(#713,#714,#715,#716));
#119=EDGE_LOOP('',(#717,#718,#719,#720));
#120=EDGE_LOOP('',(#721,#722,#723,#724));
#121=EDGE_LOOP('',(#725,#726,#727,#728,#729,#730,#731,#732));
#122=EDGE_LOOP('',(#733,#734,#735,#736));
#123=EDGE_LOOP('',(#737,#738,#739,#740));
#124=LINE('',#1122,#217);
#125=LINE('',#1124,#218);
#126=LINE('',#1126,#219);
#127=LINE('',#1127,#220);
#128=LINE('',#1132,#221);
#129=LINE('',#1137,#222);
#130=LINE('',#1138,#223);
#131=LINE('',#1139,#224);
#132=LINE('',#1143,#225);
#133=LINE('',#1147,#226);
#134=LINE('',#1151,#227);
#135=LINE('',#1152,#228);
#136=LINE('',#1156,#229);
#137=LINE('',#1158,#230);
#138=LINE('',#1160,#231);
#139=LINE('',#1162,#232);
#140=LINE('',#1166,#233);
#141=LINE('',#1168,#234);
#142=LINE('',#1170,#235);
#143=LINE('',#1172,#236);
#144=LINE('',#1176,#237);
#145=LINE('',#1178,#238);
#146=LINE('',#1180,#239);
#147=LINE('',#1182,#240);
#148=LINE('',#1188,#241);
#149=LINE('',#1190,#242);
#150=LINE('',#1191,#243);
#151=LINE('',#1194,#244);
#152=LINE('',#1196,#245);
#153=LINE('',#1197,#246);
#154=LINE('',#1206,#247);
#155=LINE('',#1209,#248);
#156=LINE('',#1212,#249);
#157=LINE('',#1214,#250);
#158=LINE('',#1215,#251);
#159=LINE('',#1218,#252);
#160=LINE('',#1220,#253);
#161=LINE('',#1221,#254);
#162=LINE('',#1230,#255);
#163=LINE('',#1233,#256);
#164=LINE('',#1236,#257);
#165=LINE('',#1238,#258);
#166=LINE('',#1239,#259);
#167=LINE('',#1242,#260);
#168=LINE('',#1244,#261);
#169=LINE('',#1245,#262);
#170=LINE('',#1254,#263);
#171=LINE('',#1257,#264);
#172=LINE('',#1260,#265);
#173=LINE('',#1262,#266);
#174=LINE('',#1263,#267);
#175=LINE('',#1266,#268);
#176=LINE('',#1267,#269);
#177=LINE('',#1269,#270);
#178=LINE('',#1270,#271);
#179=LINE('',#1273,#272);
#180=LINE('',#1274,#273);
#181=LINE('',#1277,#274);
#182=LINE('',#1278,#275);
#183=LINE('',#1280,#276);
#184=LINE('',#1281,#277);
#185=LINE('',#1284,#278);
#186=LINE('',#1285,#279);
#187=LINE('',#1288,#280);
#188=LINE('',#1289,#281);
#189=LINE('',#1291,#282);
#190=LINE('',#1292,#283);
#191=LINE('',#1295,#284);
#192=LINE('',#1298,#285);
#193=LINE('',#1301,#286);
#194=LINE('',#1304,#287);
#195=LINE('',#1306,#288);
#196=LINE('',#1309,#289);
#197=LINE('',#1312,#290);
#198=LINE('',#1315,#291);
#199=LINE('',#1316,#292);
#200=LINE('',#1318,#293);
#201=LINE('',#1320,#294);
#202=LINE('',#1322,#295);
#203=LINE('',#1323,#296);
#204=LINE('',#1325,#297);
#205=LINE('',#1326,#298);
#206=LINE('',#1327,#299);
#207=LINE('',#1329,#300);
#208=LINE('',#1330,#301);
#209=LINE('',#1332,#302);
#210=LINE('',#1333,#303);
#211=LINE('',#1337,#304);
#212=LINE('',#1340,#305);
#213=LINE('',#1343,#306);
#214=LINE('',#1344,#307);
#215=LINE('',#1346,#308);
#216=LINE('',#1349,#309);
#217=VECTOR('',#897,10.);
#218=VECTOR('',#898,10.);
#219=VECTOR('',#899,10.);
#220=VECTOR('',#900,10.);
#221=VECTOR('',#905,10.);
#222=VECTOR('',#910,10.);
#223=VECTOR('',#911,10.);
#224=VECTOR('',#912,10.);
#225=VECTOR('',#915,10.);
#226=VECTOR('',#918,10.);
#227=VECTOR('',#923,10.);
#228=VECTOR('',#924,10.);
#229=VECTOR('',#927,10.);
#230=VECTOR('',#928,10.);
#231=VECTOR('',#929,10.);
#232=VECTOR('',#930,10.);
#233=VECTOR('',#933,10.);
#234=VECTOR('',#934,10.);
#235=VECTOR('',#935,10.);
#236=VECTOR('',#936,10.);
#237=VECTOR('',#939,10.);
#238=VECTOR('',#940,10.);
#239=VECTOR('',#941,10.);
#240=VECTOR('',#942,10.);
#241=VECTOR('',#949,10.);
#242=VECTOR('',#950,10.);
#243=VECTOR('',#951,10.);
#244=VECTOR('',#954,10.);
#245=VECTOR('',#955,10.);
#246=VECTOR('',#956,10.);
#247=VECTOR('',#967,10.);
#248=VECTOR('',#970,10.);
#249=VECTOR('',#973,10.);
#250=VECTOR('',#974,10.);
#251=VECTOR('',#975,10.);
#252=VECTOR('',#978,10.);
#253=VECTOR('',#979,10.);
#254=VECTOR('',#980,10.);
#255=VECTOR('',#991,10.);
#256=VECTOR('',#994,10.);
#257=VECTOR('',#997,10.);
#258=VECTOR('',#998,10.);
#259=VECTOR('',#999,10.);
#260=VECTOR('',#1002,10.);
#261=VECTOR('',#1003,10.);
#262=VECTOR('',#1004,10.);
#263=VECTOR('',#1015,10.);
#264=VECTOR('',#1018,10.);
#265=VECTOR('',#1021,10.);
#266=VECTOR('',#1022,10.);
#267=VECTOR('',#1023,10.);
#268=VECTOR('',#1026,10.);
#269=VECTOR('',#1027,10.);
#270=VECTOR('',#1028,10.);
#271=VECTOR('',#1029,10.);
#272=VECTOR('',#1032,10.);
#273=VECTOR('',#1033,10.);
#274=VECTOR('',#1036,10.);
#275=VECTOR('',#1037,10.);
#276=VECTOR('',#1038,10.);
#277=VECTOR('',#1039,10.);
#278=VECTOR('',#1042,10.);
#279=VECTOR('',#1043,10.);
#280=VECTOR('',#1046,10.);
#281=VECTOR('',#1047,10.);
#282=VECTOR('',#1048,10.);
#283=VECTOR('',#1049,10.);
#284=VECTOR('',#1052,10.);
#285=VECTOR('',#1055,10.);
#286=VECTOR('',#1058,10.);
#287=VECTOR('',#1061,10.);
#288=VECTOR('',#1062,10.);
#289=VECTOR('',#1065,40.);
#290=VECTOR('',#1070,10.);
#291=VECTOR('',#1073,10.);
#292=VECTOR('',#1074,10.);
#293=VECTOR('',#1077,10.);
#294=VECTOR('',#1080,10.);
#295=VECTOR('',#1081,10.);
#296=VECTOR('',#1082,10.);
#297=VECTOR('',#1083,10.);
#298=VECTOR('',#1084,10.);
#299=VECTOR('',#1085,10.);
#300=VECTOR('',#1086,10.);
#301=VECTOR('',#1087,10.);
#302=VECTOR('',#1088,10.);
#303=VECTOR('',#1089,10.);
#304=VECTOR('',#1096,10.);
#305=VECTOR('',#1101,10.);
#306=VECTOR('',#1106,10.);
#307=VECTOR('',#1107,10.);
#308=VECTOR('',#1110,10.);
#309=VECTOR('',#1115,10.);
#310=VERTEX_POINT('',#1120);
#311=VERTEX_POINT('',#1121);
#312=VERTEX_POINT('',#1123);
#313=VERTEX_POINT('',#1125);
#314=VERTEX_POINT('',#1129);
#315=VERTEX_POINT('',#1131);
#316=VERTEX_POINT('',#1135);
#317=VERTEX_POINT('',#1136);
#318=VERTEX_POINT('',#1141);
#319=VERTEX_POINT('',#1142);
#320=VERTEX_POINT('',#1144);
#321=VERTEX_POINT('',#1146);
#322=VERTEX_POINT('',#1150);
#323=VERTEX_POINT('',#1153);
#324=VERTEX_POINT('',#1155);
#325=VERTEX_POINT('',#1157);
#326=VERTEX_POINT('',#1159);
#327=VERTEX_POINT('',#1161);
#328=VERTEX_POINT('',#1163);
#329=VERTEX_POINT('',#1165);
#330=VERTEX_POINT('',#1167);
#331=VERTEX_POINT('',#1169);
#332=VERTEX_POINT('',#1171);
#333=VERTEX_POINT('',#1173);
#334=VERTEX_POINT('',#1175);
#335=VERTEX_POINT('',#1177);
#336=VERTEX_POINT('',#1179);
#337=VERTEX_POINT('',#1181);
#338=VERTEX_POINT('',#1183);
#339=VERTEX_POINT('',#1187);
#340=VERTEX_POINT('',#1189);
#341=VERTEX_POINT('',#1193);
#342=VERTEX_POINT('',#1195);
#343=VERTEX_POINT('',#1202);
#344=VERTEX_POINT('',#1203);
#345=VERTEX_POINT('',#1205);
#346=VERTEX_POINT('',#1207);
#347=VERTEX_POINT('',#1211);
#348=VERTEX_POINT('',#1213);
#349=VERTEX_POINT('',#1217);
#350=VERTEX_POINT('',#1219);
#351=VERTEX_POINT('',#1226);
#352=VERTEX_POINT('',#1227);
#353=VERTEX_POINT('',#1229);
#354=VERTEX_POINT('',#1231);
#355=VERTEX_POINT('',#1235);
#356=VERTEX_POINT('',#1237);
#357=VERTEX_POINT('',#1241);
#358=VERTEX_POINT('',#1243);
#359=VERTEX_POINT('',#1250);
#360=VERTEX_POINT('',#1251);
#361=VERTEX_POINT('',#1253);
#362=VERTEX_POINT('',#1255);
#363=VERTEX_POINT('',#1259);
#364=VERTEX_POINT('',#1261);
#365=VERTEX_POINT('',#1265);
#366=VERTEX_POINT('',#1268);
#367=VERTEX_POINT('',#1272);
#368=VERTEX_POINT('',#1276);
#369=VERTEX_POINT('',#1279);
#370=VERTEX_POINT('',#1283);
#371=VERTEX_POINT('',#1287);
#372=VERTEX_POINT('',#1290);
#373=VERTEX_POINT('',#1294);
#374=VERTEX_POINT('',#1297);
#375=VERTEX_POINT('',#1300);
#376=VERTEX_POINT('',#1302);
#377=VERTEX_POINT('',#1305);
#378=VERTEX_POINT('',#1307);
#379=VERTEX_POINT('',#1314);
#380=VERTEX_POINT('',#1321);
#381=VERTEX_POINT('',#1324);
#382=VERTEX_POINT('',#1328);
#383=VERTEX_POINT('',#1331);
#384=EDGE_CURVE('',#310,#311,#124,.T.);
#385=EDGE_CURVE('',#310,#312,#125,.T.);
#386=EDGE_CURVE('',#313,#312,#126,.T.);
#387=EDGE_CURVE('',#313,#311,#127,.T.);
#388=EDGE_CURVE('',#312,#314,#20,.T.);
#389=EDGE_CURVE('',#314,#315,#128,.T.);
#390=EDGE_CURVE('',#315,#313,#21,.T.);
#391=EDGE_CURVE('',#316,#317,#129,.T.);
#392=EDGE_CURVE('',#315,#316,#130,.T.);
#393=EDGE_CURVE('',#314,#317,#131,.T.);
#394=EDGE_CURVE('',#318,#319,#132,.T.);
#395=EDGE_CURVE('',#319,#320,#22,.T.);
#396=EDGE_CURVE('',#320,#321,#133,.T.);
#397=EDGE_CURVE('',#321,#318,#23,.T.);
#398=EDGE_CURVE('',#322,#317,#134,.T.);
#399=EDGE_CURVE('',#310,#322,#135,.T.);
#400=EDGE_CURVE('',#323,#311,#24,.T.);
#401=EDGE_CURVE('',#323,#324,#136,.T.);
#402=EDGE_CURVE('',#325,#324,#137,.T.);
#403=EDGE_CURVE('',#326,#325,#138,.T.);
#404=EDGE_CURVE('',#326,#327,#139,.T.);
#405=EDGE_CURVE('',#328,#327,#25,.T.);
#406=EDGE_CURVE('',#328,#329,#140,.T.);
#407=EDGE_CURVE('',#330,#329,#141,.T.);
#408=EDGE_CURVE('',#331,#330,#142,.T.);
#409=EDGE_CURVE('',#331,#332,#143,.T.);
#410=EDGE_CURVE('',#333,#332,#26,.T.);
#411=EDGE_CURVE('',#333,#334,#144,.T.);
#412=EDGE_CURVE('',#335,#334,#145,.T.);
#413=EDGE_CURVE('',#336,#335,#146,.T.);
#414=EDGE_CURVE('',#336,#337,#147,.T.);
#415=EDGE_CURVE('',#338,#337,#27,.T.);
#416=EDGE_CURVE('',#316,#338,#28,.T.);
#417=EDGE_CURVE('',#339,#331,#148,.T.);
#418=EDGE_CURVE('',#340,#339,#149,.T.);
#419=EDGE_CURVE('',#340,#332,#150,.T.);
#420=EDGE_CURVE('',#341,#328,#151,.T.);
#421=EDGE_CURVE('',#342,#341,#152,.T.);
#422=EDGE_CURVE('',#329,#342,#153,.T.);
#423=EDGE_CURVE('',#339,#342,#29,.T.);
#424=EDGE_CURVE('',#341,#340,#30,.T.);
#425=EDGE_CURVE('',#343,#344,#31,.T.);
#426=EDGE_CURVE('',#344,#345,#154,.T.);
#427=EDGE_CURVE('',#345,#346,#32,.T.);
#428=EDGE_CURVE('',#346,#343,#155,.T.);
#429=EDGE_CURVE('',#347,#326,#156,.T.);
#430=EDGE_CURVE('',#348,#347,#157,.T.);
#431=EDGE_CURVE('',#348,#327,#158,.T.);
#432=EDGE_CURVE('',#349,#323,#159,.T.);
#433=EDGE_CURVE('',#350,#349,#160,.T.);
#434=EDGE_CURVE('',#324,#350,#161,.T.);
#435=EDGE_CURVE('',#347,#350,#33,.T.);
#436=EDGE_CURVE('',#349,#348,#34,.T.);
#437=EDGE_CURVE('',#351,#352,#35,.T.);
#438=EDGE_CURVE('',#352,#353,#162,.T.);
#439=EDGE_CURVE('',#353,#354,#36,.T.);
#440=EDGE_CURVE('',#354,#351,#163,.T.);
#441=EDGE_CURVE('',#355,#336,#164,.T.);
#442=EDGE_CURVE('',#356,#355,#165,.T.);
#443=EDGE_CURVE('',#356,#337,#166,.T.);
#444=EDGE_CURVE('',#357,#333,#167,.T.);
#445=EDGE_CURVE('',#358,#357,#168,.T.);
#446=EDGE_CURVE('',#334,#358,#169,.T.);
#447=EDGE_CURVE('',#355,#358,#37,.T.);
#448=EDGE_CURVE('',#357,#356,#38,.T.);
#449=EDGE_CURVE('',#359,#360,#39,.T.);
#450=EDGE_CURVE('',#360,#361,#170,.T.);
#451=EDGE_CURVE('',#361,#362,#40,.T.);
#452=EDGE_CURVE('',#362,#359,#171,.T.);
#453=EDGE_CURVE('',#318,#363,#172,.T.);
#454=EDGE_CURVE('',#364,#363,#173,.T.);
#455=EDGE_CURVE('',#364,#319,#174,.T.);
#456=EDGE_CURVE('',#343,#365,#175,.T.);
#457=EDGE_CURVE('',#329,#365,#176,.T.);
#458=EDGE_CURVE('',#331,#366,#177,.T.);
#459=EDGE_CURVE('',#366,#344,#178,.T.);
#460=EDGE_CURVE('',#367,#346,#179,.T.);
#461=EDGE_CURVE('',#365,#367,#180,.T.);
#462=EDGE_CURVE('',#351,#368,#181,.T.);
#463=EDGE_CURVE('',#324,#368,#182,.T.);
#464=EDGE_CURVE('',#326,#369,#183,.T.);
#465=EDGE_CURVE('',#369,#352,#184,.T.);
#466=EDGE_CURVE('',#370,#354,#185,.T.);
#467=EDGE_CURVE('',#368,#370,#186,.T.);
#468=EDGE_CURVE('',#359,#371,#187,.T.);
#469=EDGE_CURVE('',#334,#371,#188,.T.);
#470=EDGE_CURVE('',#336,#372,#189,.T.);
#471=EDGE_CURVE('',#372,#360,#190,.T.);
#472=EDGE_CURVE('',#373,#320,#191,.T.);
#473=EDGE_CURVE('',#370,#364,#41,.T.);
#474=EDGE_CURVE('',#374,#353,#192,.T.);
#475=EDGE_CURVE('',#367,#374,#42,.T.);
#476=EDGE_CURVE('',#375,#345,#193,.T.);
#477=EDGE_CURVE('',#376,#375,#43,.T.);
#478=EDGE_CURVE('',#376,#362,#194,.T.);
#479=EDGE_CURVE('',#377,#361,#195,.T.);
#480=EDGE_CURVE('',#378,#377,#44,.T.);
#481=EDGE_CURVE('',#378,#338,#196,.T.);
#482=EDGE_CURVE('',#373,#378,#45,.T.);
#483=EDGE_CURVE('',#371,#376,#197,.T.);
#484=EDGE_CURVE('',#379,#373,#198,.T.);
#485=EDGE_CURVE('',#379,#321,#199,.T.);
#486=EDGE_CURVE('',#375,#366,#200,.T.);
#487=EDGE_CURVE('',#377,#372,#201,.T.);
#488=EDGE_CURVE('',#372,#380,#202,.T.);
#489=EDGE_CURVE('',#380,#371,#203,.T.);
#490=EDGE_CURVE('',#366,#381,#204,.T.);
#491=EDGE_CURVE('',#381,#365,#205,.T.);
#492=EDGE_CURVE('',#374,#369,#206,.T.);
#493=EDGE_CURVE('',#369,#382,#207,.T.);
#494=EDGE_CURVE('',#382,#368,#208,.T.);
#495=EDGE_CURVE('',#363,#383,#209,.T.);
#496=EDGE_CURVE('',#383,#379,#210,.T.);
#497=EDGE_CURVE('',#335,#380,#211,.T.);
#498=EDGE_CURVE('',#325,#382,#212,.T.);
#499=EDGE_CURVE('',#317,#379,#213,.T.);
#500=EDGE_CURVE('',#322,#383,#214,.T.);
#501=EDGE_CURVE('',#310,#363,#215,.T.);
#502=EDGE_CURVE('',#330,#381,#216,.T.);
#503=ORIENTED_EDGE('',*,*,#384,.F.);
#504=ORIENTED_EDGE('',*,*,#385,.T.);
#505=ORIENTED_EDGE('',*,*,#386,.F.);
#506=ORIENTED_EDGE('',*,*,#387,.T.);
#507=ORIENTED_EDGE('',*,*,#386,.T.);
#508=ORIENTED_EDGE('',*,*,#388,.T.);
#509=ORIENTED_EDGE('',*,*,#389,.T.);
#510=ORIENTED_EDGE('',*,*,#390,.T.);
#511=ORIENTED_EDGE('',*,*,#391,.F.);
#512=ORIENTED_EDGE('',*,*,#392,.F.);
#513=ORIENTED_EDGE('',*,*,#389,.F.);
#514=ORIENTED_EDGE('',*,*,#393,.T.);
#515=ORIENTED_EDGE('',*,*,#394,.T.);
#516=ORIENTED_EDGE('',*,*,#395,.T.);
#517=ORIENTED_EDGE('',*,*,#396,.T.);
#518=ORIENTED_EDGE('',*,*,#397,.T.);
#519=ORIENTED_EDGE('',*,*,#391,.T.);
#520=ORIENTED_EDGE('',*,*,#398,.F.);
#521=ORIENTED_EDGE('',*,*,#399,.F.);
#522=ORIENTED_EDGE('',*,*,#384,.T.);
#523=ORIENTED_EDGE('',*,*,#400,.F.);
#524=ORIENTED_EDGE('',*,*,#401,.T.);
#525=ORIENTED_EDGE('',*,*,#402,.F.);
#526=ORIENTED_EDGE('',*,*,#403,.F.);
#527=ORIENTED_EDGE('',*,*,#404,.T.);
#528=ORIENTED_EDGE('',*,*,#405,.F.);
#529=ORIENTED_EDGE('',*,*,#406,.T.);
#530=ORIENTED_EDGE('',*,*,#407,.F.);
#531=ORIENTED_EDGE('',*,*,#408,.F.);
#532=ORIENTED_EDGE('',*,*,#409,.T.);
#533=ORIENTED_EDGE('',*,*,#410,.F.);
#534=ORIENTED_EDGE('',*,*,#411,.T.);
#535=ORIENTED_EDGE('',*,*,#412,.F.);
#536=ORIENTED_EDGE('',*,*,#413,.F.);
#537=ORIENTED_EDGE('',*,*,#414,.T.);
#538=ORIENTED_EDGE('',*,*,#415,.F.);
#539=ORIENTED_EDGE('',*,*,#416,.F.);
#540=ORIENTED_EDGE('',*,*,#409,.F.);
#541=ORIENTED_EDGE('',*,*,#417,.F.);
#542=ORIENTED_EDGE('',*,*,#418,.F.);
#543=ORIENTED_EDGE('',*,*,#419,.T.);
#544=ORIENTED_EDGE('',*,*,#406,.F.);
#545=ORIENTED_EDGE('',*,*,#420,.F.);
#546=ORIENTED_EDGE('',*,*,#421,.F.);
#547=ORIENTED_EDGE('',*,*,#422,.F.);
#548=ORIENTED_EDGE('',*,*,#423,.T.);
#549=ORIENTED_EDGE('',*,*,#421,.T.);
#550=ORIENTED_EDGE('',*,*,#424,.T.);
#551=ORIENTED_EDGE('',*,*,#418,.T.);
#552=ORIENTED_EDGE('',*,*,#425,.T.);
#553=ORIENTED_EDGE('',*,*,#426,.T.);
#554=ORIENTED_EDGE('',*,*,#427,.T.);
#555=ORIENTED_EDGE('',*,*,#428,.T.);
#556=ORIENTED_EDGE('',*,*,#404,.F.);
#557=ORIENTED_EDGE('',*,*,#429,.F.);
#558=ORIENTED_EDGE('',*,*,#430,.F.);
#559=ORIENTED_EDGE('',*,*,#431,.T.);
#560=ORIENTED_EDGE('',*,*,#401,.F.);
#561=ORIENTED_EDGE('',*,*,#432,.F.);
#562=ORIENTED_EDGE('',*,*,#433,.F.);
#563=ORIENTED_EDGE('',*,*,#434,.F.);
#564=ORIENTED_EDGE('',*,*,#435,.T.);
#565=ORIENTED_EDGE('',*,*,#433,.T.);
#566=ORIENTED_EDGE('',*,*,#436,.T.);
#567=ORIENTED_EDGE('',*,*,#430,.T.);
#568=ORIENTED_EDGE('',*,*,#437,.T.);
#569=ORIENTED_EDGE('',*,*,#438,.T.);
#570=ORIENTED_EDGE('',*,*,#439,.T.);
#571=ORIENTED_EDGE('',*,*,#440,.T.);
#572=ORIENTED_EDGE('',*,*,#414,.F.);
#573=ORIENTED_EDGE('',*,*,#441,.F.);
#574=ORIENTED_EDGE('',*,*,#442,.F.);
#575=ORIENTED_EDGE('',*,*,#443,.T.);
#576=ORIENTED_EDGE('',*,*,#411,.F.);
#577=ORIENTED_EDGE('',*,*,#444,.F.);
#578=ORIENTED_EDGE('',*,*,#445,.F.);
#579=ORIENTED_EDGE('',*,*,#446,.F.);
#580=ORIENTED_EDGE('',*,*,#447,.T.);
#581=ORIENTED_EDGE('',*,*,#445,.T.);
#582=ORIENTED_EDGE('',*,*,#448,.T.);
#583=ORIENTED_EDGE('',*,*,#442,.T.);
#584=ORIENTED_EDGE('',*,*,#449,.T.);
#585=ORIENTED_EDGE('',*,*,#450,.T.);
#586=ORIENTED_EDGE('',*,*,#451,.T.);
#587=ORIENTED_EDGE('',*,*,#452,.T.);
#588=ORIENTED_EDGE('',*,*,#453,.T.);
#589=ORIENTED_EDGE('',*,*,#454,.F.);
#590=ORIENTED_EDGE('',*,*,#455,.T.);
#591=ORIENTED_EDGE('',*,*,#394,.F.);
#592=ORIENTED_EDGE('',*,*,#456,.T.);
#593=ORIENTED_EDGE('',*,*,#457,.F.);
#594=ORIENTED_EDGE('',*,*,#422,.T.);
#595=ORIENTED_EDGE('',*,*,#423,.F.);
#596=ORIENTED_EDGE('',*,*,#417,.T.);
#597=ORIENTED_EDGE('',*,*,#458,.T.);
#598=ORIENTED_EDGE('',*,*,#459,.T.);
#599=ORIENTED_EDGE('',*,*,#425,.F.);
#600=ORIENTED_EDGE('',*,*,#460,.F.);
#601=ORIENTED_EDGE('',*,*,#461,.F.);
#602=ORIENTED_EDGE('',*,*,#456,.F.);
#603=ORIENTED_EDGE('',*,*,#428,.F.);
#604=ORIENTED_EDGE('',*,*,#462,.T.);
#605=ORIENTED_EDGE('',*,*,#463,.F.);
#606=ORIENTED_EDGE('',*,*,#434,.T.);
#607=ORIENTED_EDGE('',*,*,#435,.F.);
#608=ORIENTED_EDGE('',*,*,#429,.T.);
#609=ORIENTED_EDGE('',*,*,#464,.T.);
#610=ORIENTED_EDGE('',*,*,#465,.T.);
#611=ORIENTED_EDGE('',*,*,#437,.F.);
#612=ORIENTED_EDGE('',*,*,#466,.F.);
#613=ORIENTED_EDGE('',*,*,#467,.F.);
#614=ORIENTED_EDGE('',*,*,#462,.F.);
#615=ORIENTED_EDGE('',*,*,#440,.F.);
#616=ORIENTED_EDGE('',*,*,#468,.T.);
#617=ORIENTED_EDGE('',*,*,#469,.F.);
#618=ORIENTED_EDGE('',*,*,#446,.T.);
#619=ORIENTED_EDGE('',*,*,#447,.F.);
#620=ORIENTED_EDGE('',*,*,#441,.T.);
#621=ORIENTED_EDGE('',*,*,#470,.T.);
#622=ORIENTED_EDGE('',*,*,#471,.T.);
#623=ORIENTED_EDGE('',*,*,#449,.F.);
#624=ORIENTED_EDGE('',*,*,#472,.T.);
#625=ORIENTED_EDGE('',*,*,#395,.F.);
#626=ORIENTED_EDGE('',*,*,#455,.F.);
#627=ORIENTED_EDGE('',*,*,#473,.F.);
#628=ORIENTED_EDGE('',*,*,#466,.T.);
#629=ORIENTED_EDGE('',*,*,#439,.F.);
#630=ORIENTED_EDGE('',*,*,#474,.F.);
#631=ORIENTED_EDGE('',*,*,#475,.F.);
#632=ORIENTED_EDGE('',*,*,#460,.T.);
#633=ORIENTED_EDGE('',*,*,#427,.F.);
#634=ORIENTED_EDGE('',*,*,#476,.F.);
#635=ORIENTED_EDGE('',*,*,#477,.F.);
#636=ORIENTED_EDGE('',*,*,#478,.T.);
#637=ORIENTED_EDGE('',*,*,#451,.F.);
#638=ORIENTED_EDGE('',*,*,#479,.F.);
#639=ORIENTED_EDGE('',*,*,#480,.F.);
#640=ORIENTED_EDGE('',*,*,#481,.T.);
#641=ORIENTED_EDGE('',*,*,#415,.T.);
#642=ORIENTED_EDGE('',*,*,#443,.F.);
#643=ORIENTED_EDGE('',*,*,#448,.F.);
#644=ORIENTED_EDGE('',*,*,#444,.T.);
#645=ORIENTED_EDGE('',*,*,#410,.T.);
#646=ORIENTED_EDGE('',*,*,#419,.F.);
#647=ORIENTED_EDGE('',*,*,#424,.F.);
#648=ORIENTED_EDGE('',*,*,#420,.T.);
#649=ORIENTED_EDGE('',*,*,#405,.T.);
#650=ORIENTED_EDGE('',*,*,#431,.F.);
#651=ORIENTED_EDGE('',*,*,#436,.F.);
#652=ORIENTED_EDGE('',*,*,#432,.T.);
#653=ORIENTED_EDGE('',*,*,#400,.T.);
#654=ORIENTED_EDGE('',*,*,#387,.F.);
#655=ORIENTED_EDGE('',*,*,#390,.F.);
#656=ORIENTED_EDGE('',*,*,#392,.T.);
#657=ORIENTED_EDGE('',*,*,#416,.T.);
#658=ORIENTED_EDGE('',*,*,#481,.F.);
#659=ORIENTED_EDGE('',*,*,#482,.F.);
#660=ORIENTED_EDGE('',*,*,#478,.F.);
#661=ORIENTED_EDGE('',*,*,#483,.F.);
#662=ORIENTED_EDGE('',*,*,#468,.F.);
#663=ORIENTED_EDGE('',*,*,#452,.F.);
#664=ORIENTED_EDGE('',*,*,#472,.F.);
#665=ORIENTED_EDGE('',*,*,#484,.F.);
#666=ORIENTED_EDGE('',*,*,#485,.T.);
#667=ORIENTED_EDGE('',*,*,#396,.F.);
#668=ORIENTED_EDGE('',*,*,#459,.F.);
#669=ORIENTED_EDGE('',*,*,#486,.F.);
#670=ORIENTED_EDGE('',*,*,#476,.T.);
#671=ORIENTED_EDGE('',*,*,#426,.F.);
#672=ORIENTED_EDGE('',*,*,#484,.T.);
#673=ORIENTED_EDGE('',*,*,#482,.T.);
#674=ORIENTED_EDGE('',*,*,#480,.T.);
#675=ORIENTED_EDGE('',*,*,#487,.T.);
#676=ORIENTED_EDGE('',*,*,#488,.T.);
#677=ORIENTED_EDGE('',*,*,#489,.T.);
#678=ORIENTED_EDGE('',*,*,#483,.T.);
#679=ORIENTED_EDGE('',*,*,#477,.T.);
#680=ORIENTED_EDGE('',*,*,#486,.T.);
#681=ORIENTED_EDGE('',*,*,#490,.T.);
#682=ORIENTED_EDGE('',*,*,#491,.T.);
#683=ORIENTED_EDGE('',*,*,#461,.T.);
#684=ORIENTED_EDGE('',*,*,#475,.T.);
#685=ORIENTED_EDGE('',*,*,#492,.T.);
#686=ORIENTED_EDGE('',*,*,#493,.T.);
#687=ORIENTED_EDGE('',*,*,#494,.T.);
#688=ORIENTED_EDGE('',*,*,#467,.T.);
#689=ORIENTED_EDGE('',*,*,#473,.T.);
#690=ORIENTED_EDGE('',*,*,#454,.T.);
#691=ORIENTED_EDGE('',*,*,#495,.T.);
#692=ORIENTED_EDGE('',*,*,#496,.T.);
#693=ORIENTED_EDGE('',*,*,#465,.F.);
#694=ORIENTED_EDGE('',*,*,#492,.F.);
#695=ORIENTED_EDGE('',*,*,#474,.T.);
#696=ORIENTED_EDGE('',*,*,#438,.F.);
#697=ORIENTED_EDGE('',*,*,#471,.F.);
#698=ORIENTED_EDGE('',*,*,#487,.F.);
#699=ORIENTED_EDGE('',*,*,#479,.T.);
#700=ORIENTED_EDGE('',*,*,#450,.F.);
#701=ORIENTED_EDGE('',*,*,#413,.T.);
#702=ORIENTED_EDGE('',*,*,#497,.T.);
#703=ORIENTED_EDGE('',*,*,#488,.F.);
#704=ORIENTED_EDGE('',*,*,#470,.F.);
#705=ORIENTED_EDGE('',*,*,#412,.T.);
#706=ORIENTED_EDGE('',*,*,#469,.T.);
#707=ORIENTED_EDGE('',*,*,#489,.F.);
#708=ORIENTED_EDGE('',*,*,#497,.F.);
#709=ORIENTED_EDGE('',*,*,#403,.T.);
#710=ORIENTED_EDGE('',*,*,#498,.T.);
#711=ORIENTED_EDGE('',*,*,#493,.F.);
#712=ORIENTED_EDGE('',*,*,#464,.F.);
#713=ORIENTED_EDGE('',*,*,#402,.T.);
#714=ORIENTED_EDGE('',*,*,#463,.T.);
#715=ORIENTED_EDGE('',*,*,#494,.F.);
#716=ORIENTED_EDGE('',*,*,#498,.F.);
#717=ORIENTED_EDGE('',*,*,#398,.T.);
#718=ORIENTED_EDGE('',*,*,#499,.T.);
#719=ORIENTED_EDGE('',*,*,#496,.F.);
#720=ORIENTED_EDGE('',*,*,#500,.F.);
#721=ORIENTED_EDGE('',*,*,#399,.T.);
#722=ORIENTED_EDGE('',*,*,#500,.T.);
#723=ORIENTED_EDGE('',*,*,#495,.F.);
#724=ORIENTED_EDGE('',*,*,#501,.F.);
#725=ORIENTED_EDGE('',*,*,#485,.F.);
#726=ORIENTED_EDGE('',*,*,#499,.F.);
#727=ORIENTED_EDGE('',*,*,#393,.F.);
#728=ORIENTED_EDGE('',*,*,#388,.F.);
#729=ORIENTED_EDGE('',*,*,#385,.F.);
#730=ORIENTED_EDGE('',*,*,#501,.T.);
#731=ORIENTED_EDGE('',*,*,#453,.F.);
#732=ORIENTED_EDGE('',*,*,#397,.F.);
#733=ORIENTED_EDGE('',*,*,#407,.T.);
#734=ORIENTED_EDGE('',*,*,#457,.T.);
#735=ORIENTED_EDGE('',*,*,#491,.F.);
#736=ORIENTED_EDGE('',*,*,#502,.F.);
#737=ORIENTED_EDGE('',*,*,#408,.T.);
#738=ORIENTED_EDGE('',*,*,#502,.T.);
#739=ORIENTED_EDGE('',*,*,#490,.F.);
#740=ORIENTED_EDGE('',*,*,#458,.F.);
#741=PLANE('',#828);
#742=PLANE('',#829);
#743=PLANE('',#832);
#744=PLANE('',#833);
#745=PLANE('',#836);
#746=PLANE('',#842);
#747=PLANE('',#843);
#748=PLANE('',#844);
#749=PLANE('',#847);
#750=PLANE('',#850);
#751=PLANE('',#851);
#752=PLANE('',#852);
#753=PLANE('',#855);
#754=PLANE('',#858);
#755=PLANE('',#859);
#756=PLANE('',#860);
#757=PLANE('',#863);
#758=PLANE('',#866);
#759=PLANE('',#868);
#760=PLANE('',#870);
#761=PLANE('',#878);
#762=PLANE('',#879);
#763=PLANE('',#880);
#764=PLANE('',#881);
#765=PLANE('',#882);
#766=PLANE('',#883);
#767=PLANE('',#884);
#768=PLANE('',#885);
#769=PLANE('',#886);
#770=PLANE('',#887);
#771=PLANE('',#888);
#772=PLANE('',#889);
#773=PLANE('',#891);
#774=PLANE('',#892);
#775=ADVANCED_FACE('',(#46),#741,.T.);
#776=ADVANCED_FACE('',(#47),#742,.F.);
#777=ADVANCED_FACE('',(#48),#743,.T.);
#778=ADVANCED_FACE('',(#49),#744,.T.);
#779=ADVANCED_FACE('',(#50),#745,.F.);
#780=ADVANCED_FACE('',(#51),#746,.T.);
#781=ADVANCED_FACE('',(#52),#747,.T.);
#782=ADVANCED_FACE('',(#53),#748,.F.);
#783=ADVANCED_FACE('',(#54),#749,.T.);
#784=ADVANCED_FACE('',(#55),#750,.T.);
#785=ADVANCED_FACE('',(#56),#751,.T.);
#786=ADVANCED_FACE('',(#57),#752,.F.);
#787=ADVANCED_FACE('',(#58),#753,.T.);
#788=ADVANCED_FACE('',(#59),#754,.T.);
#789=ADVANCED_FACE('',(#60),#755,.T.);
#790=ADVANCED_FACE('',(#61),#756,.F.);
#791=ADVANCED_FACE('',(#62),#757,.T.);
#792=ADVANCED_FACE('',(#63),#758,.T.);
#793=ADVANCED_FACE('',(#64),#15,.F.);
#794=ADVANCED_FACE('',(#65),#759,.T.);
#795=ADVANCED_FACE('',(#66),#16,.F.);
#796=ADVANCED_FACE('',(#67),#760,.T.);
#797=ADVANCED_FACE('',(#68),#17,.F.);
#798=ADVANCED_FACE('',(#69),#18,.T.);
#799=ADVANCED_FACE('',(#70),#761,.T.);
#800=ADVANCED_FACE('',(#71),#762,.T.);
#801=ADVANCED_FACE('',(#72),#763,.T.);
#802=ADVANCED_FACE('',(#73),#764,.T.);
#803=ADVANCED_FACE('',(#74),#765,.T.);
#804=ADVANCED_FACE('',(#75),#766,.T.);
#805=ADVANCED_FACE('',(#76),#767,.T.);
#806=ADVANCED_FACE('',(#77),#768,.T.);
#807=ADVANCED_FACE('',(#78),#769,.T.);
#808=ADVANCED_FACE('',(#79),#770,.T.);
#809=ADVANCED_FACE('',(#80),#771,.T.);
#810=ADVANCED_FACE('',(#81),#772,.T.);
#811=ADVANCED_FACE('',(#82),#19,.F.);
#812=ADVANCED_FACE('',(#83),#773,.T.);
#813=ADVANCED_FACE('',(#84),#774,.T.);
#814=CLOSED_SHELL('',(#775,#776,#777,#778,#779,#780,#781,#782,#783,#784,
#785,#786,#787,#788,#789,#790,#791,#792,#793,#794,#795,#796,#797,#798,#799,
#800,#801,#802,#803,#804,#805,#806,#807,#808,#809,#810,#811,#812,#813));
#815=DERIVED_UNIT_ELEMENT(#817,1.);
#816=DERIVED_UNIT_ELEMENT(#1356,-3.);
#817=(
MASS_UNIT()
NAMED_UNIT(*)
SI_UNIT(.KILO.,.GRAM.)
);
#818=DERIVED_UNIT((#815,#816));
#819=MEASURE_REPRESENTATION_ITEM('density measure',
POSITIVE_RATIO_MEASURE(7850.),#818);
#820=PROPERTY_DEFINITION_REPRESENTATION(#825,#822);
#821=PROPERTY_DEFINITION_REPRESENTATION(#826,#823);
#822=REPRESENTATION('material name',(#824),#1353);
#823=REPRESENTATION('density',(#819),#1353);
#824=DESCRIPTIVE_REPRESENTATION_ITEM('Steel','Steel');
#825=PROPERTY_DEFINITION('material property','material name',#1363);
#826=PROPERTY_DEFINITION('material property','density of part',#1363);
#827=AXIS2_PLACEMENT_3D('',#1118,#893,#894);
#828=AXIS2_PLACEMENT_3D('',#1119,#895,#896);
#829=AXIS2_PLACEMENT_3D('',#1128,#901,#902);
#830=AXIS2_PLACEMENT_3D('',#1130,#903,#904);
#831=AXIS2_PLACEMENT_3D('',#1133,#906,#907);
#832=AXIS2_PLACEMENT_3D('',#1134,#908,#909);
#833=AXIS2_PLACEMENT_3D('',#1140,#913,#914);
#834=AXIS2_PLACEMENT_3D('',#1145,#916,#917);
#835=AXIS2_PLACEMENT_3D('',#1148,#919,#920);
#836=AXIS2_PLACEMENT_3D('',#1149,#921,#922);
#837=AXIS2_PLACEMENT_3D('',#1154,#925,#926);
#838=AXIS2_PLACEMENT_3D('',#1164,#931,#932);
#839=AXIS2_PLACEMENT_3D('',#1174,#937,#938);
#840=AXIS2_PLACEMENT_3D('',#1184,#943,#944);
#841=AXIS2_PLACEMENT_3D('',#1185,#945,#946);
#842=AXIS2_PLACEMENT_3D('',#1186,#947,#948);
#843=AXIS2_PLACEMENT_3D('',#1192,#952,#953);
#844=AXIS2_PLACEMENT_3D('',#1198,#957,#958);
#845=AXIS2_PLACEMENT_3D('',#1199,#959,#960);
#846=AXIS2_PLACEMENT_3D('',#1200,#961,#962);
#847=AXIS2_PLACEMENT_3D('',#1201,#963,#964);
#848=AXIS2_PLACEMENT_3D('',#1204,#965,#966);
#849=AXIS2_PLACEMENT_3D('',#1208,#968,#969);
#850=AXIS2_PLACEMENT_3D('',#1210,#971,#972);
#851=AXIS2_PLACEMENT_3D('',#1216,#976,#977);
#852=AXIS2_PLACEMENT_3D('',#1222,#981,#982);
#853=AXIS2_PLACEMENT_3D('',#1223,#983,#984);
#854=AXIS2_PLACEMENT_3D('',#1224,#985,#986);
#855=AXIS2_PLACEMENT_3D('',#1225,#987,#988);
#856=AXIS2_PLACEMENT_3D('',#1228,#989,#990);
#857=AXIS2_PLACEMENT_3D('',#1232,#992,#993);
#858=AXIS2_PLACEMENT_3D('',#1234,#995,#996);
#859=AXIS2_PLACEMENT_3D('',#1240,#1000,#1001);
#860=AXIS2_PLACEMENT_3D('',#1246,#1005,#1006);
#861=AXIS2_PLACEMENT_3D('',#1247,#1007,#1008);
#862=AXIS2_PLACEMENT_3D('',#1248,#1009,#1010);
#863=AXIS2_PLACEMENT_3D('',#1249,#1011,#1012);
#864=AXIS2_PLACEMENT_3D('',#1252,#1013,#1014);
#865=AXIS2_PLACEMENT_3D('',#1256,#1016,#1017);
#866=AXIS2_PLACEMENT_3D('',#1258,#1019,#1020);
#867=AXIS2_PLACEMENT_3D('',#1264,#1024,#1025);
#868=AXIS2_PLACEMENT_3D('',#1271,#1030,#1031);
#869=AXIS2_PLACEMENT_3D('',#1275,#1034,#1035);
#870=AXIS2_PLACEMENT_3D('',#1282,#1040,#1041);
#871=AXIS2_PLACEMENT_3D('',#1286,#1044,#1045);
#872=AXIS2_PLACEMENT_3D('',#1293,#1050,#1051);
#873=AXIS2_PLACEMENT_3D('',#1296,#1053,#1054);
#874=AXIS2_PLACEMENT_3D('',#1299,#1056,#1057);
#875=AXIS2_PLACEMENT_3D('',#1303,#1059,#1060);
#876=AXIS2_PLACEMENT_3D('',#1308,#1063,#1064);
#877=AXIS2_PLACEMENT_3D('',#1310,#1066,#1067);
#878=AXIS2_PLACEMENT_3D('',#1311,#1068,#1069);
#879=AXIS2_PLACEMENT_3D('',#1313,#1071,#1072);
#880=AXIS2_PLACEMENT_3D('',#1317,#1075,#1076);
#881=AXIS2_PLACEMENT_3D('',#1319,#1078,#1079);
#882=AXIS2_PLACEMENT_3D('',#1334,#1090,#1091);
#883=AXIS2_PLACEMENT_3D('',#1335,#1092,#1093);
#884=AXIS2_PLACEMENT_3D('',#1336,#1094,#1095);
#885=AXIS2_PLACEMENT_3D('',#1338,#1097,#1098);
#886=AXIS2_PLACEMENT_3D('',#1339,#1099,#1100);
#887=AXIS2_PLACEMENT_3D('',#1341,#1102,#1103);
#888=AXIS2_PLACEMENT_3D('',#1342,#1104,#1105);
#889=AXIS2_PLACEMENT_3D('',#1345,#1108,#1109);
#890=AXIS2_PLACEMENT_3D('',#1347,#1111,#1112);
#891=AXIS2_PLACEMENT_3D('',#1348,#1113,#1114);
#892=AXIS2_PLACEMENT_3D('',#1350,#1116,#1117);
#893=DIRECTION('axis',(0.,0.,1.));
#894=DIRECTION('refdir',(1.,0.,0.));
#895=DIRECTION('center_axis',(1.,0.,-4.40372850815092E-16));
#896=DIRECTION('ref_axis',(-4.40372850815092E-16,0.,-1.));
#897=DIRECTION('',(-4.40372850815092E-16,0.,-1.));
#898=DIRECTION('',(0.,-1.,0.));
#899=DIRECTION('',(4.40372850815092E-16,0.,1.));
#900=DIRECTION('',(0.,1.,0.));
#901=DIRECTION('center_axis',(0.,1.,0.));
#902=DIRECTION('ref_axis',(-1.,0.,0.));
#903=DIRECTION('center_axis',(0.,1.,0.));
#904=DIRECTION('ref_axis',(1.,0.,0.));
#905=DIRECTION('',(-1.,0.,0.));
#906=DIRECTION('center_axis',(0.,-1.,0.));
#907=DIRECTION('ref_axis',(1.,0.,0.));
#908=DIRECTION('center_axis',(0.,0.,1.));
#909=DIRECTION('ref_axis',(1.,0.,0.));
#910=DIRECTION('',(1.,0.,0.));
#911=DIRECTION('',(0.,1.,0.));
#912=DIRECTION('',(0.,1.,0.));
#913=DIRECTION('center_axis',(0.,1.,0.));
#914=DIRECTION('ref_axis',(-1.,0.,0.));
#915=DIRECTION('',(-4.40372850815092E-16,0.,-1.));
#916=DIRECTION('center_axis',(0.,1.,0.));
#917=DIRECTION('ref_axis',(1.,0.,0.));
#918=DIRECTION('',(1.,0.,0.));
#919=DIRECTION('center_axis',(0.,-1.,0.));
#920=DIRECTION('ref_axis',(1.,0.,0.));
#921=DIRECTION('center_axis',(0.,1.,0.));
#922=DIRECTION('ref_axis',(1.,0.,0.));
#923=DIRECTION('',(-1.,0.,0.));
#924=DIRECTION('',(0.,0.,1.));
#925=DIRECTION('center_axis',(0.,1.,0.));
#926=DIRECTION('ref_axis',(1.,0.,0.));
#927=DIRECTION('',(0.,0.,1.));
#928=DIRECTION('',(0.,0.,-1.));
#929=DIRECTION('',(-1.,0.,0.));
#930=DIRECTION('',(1.,0.,0.));
#931=DIRECTION('center_axis',(0.,1.,0.));
#932=DIRECTION('ref_axis',(1.,0.,0.));
#933=DIRECTION('',(-1.,0.,0.));
#934=DIRECTION('',(1.,0.,0.));
#935=DIRECTION('',(0.,0.,-1.));
#936=DIRECTION('',(0.,0.,1.));
#937=DIRECTION('center_axis',(0.,1.,0.));
#938=DIRECTION('ref_axis',(1.,0.,0.));
#939=DIRECTION('',(0.,0.,-1.));
#940=DIRECTION('',(0.,0.,1.));
#941=DIRECTION('',(1.,0.,0.));
#942=DIRECTION('',(-1.,0.,0.));
#943=DIRECTION('center_axis',(0.,1.,0.));
#944=DIRECTION('ref_axis',(1.,0.,0.));
#945=DIRECTION('center_axis',(0.,1.,0.));
#946=DIRECTION('ref_axis',(1.,0.,0.));
#947=DIRECTION('center_axis',(-1.,0.,0.));
#948=DIRECTION('ref_axis',(0.,0.,1.));
#949=DIRECTION('',(0.,1.,0.));
#950=DIRECTION('',(0.,0.,-1.));
#951=DIRECTION('',(0.,1.,0.));
#952=DIRECTION('center_axis',(0.,0.,-1.));
#953=DIRECTION('ref_axis',(-1.,0.,0.));
#954=DIRECTION('',(0.,1.,0.));
#955=DIRECTION('',(1.,0.,0.));
#956=DIRECTION('',(0.,-1.,0.));
#957=DIRECTION('center_axis',(0.,1.,0.));
#958=DIRECTION('ref_axis',(-1.,0.,0.));
#959=DIRECTION('center_axis',(0.,1.,0.));
#960=DIRECTION('ref_axis',(1.,0.,0.));
#961=DIRECTION('center_axis',(0.,-1.,0.));
#962=DIRECTION('ref_axis',(1.,0.,0.));
#963=DIRECTION('center_axis',(0.,1.,0.));
#964=DIRECTION('ref_axis',(-1.,0.,0.));
#965=DIRECTION('center_axis',(0.,-1.,0.));
#966=DIRECTION('ref_axis',(1.,0.,0.));
#967=DIRECTION('',(0.,0.,1.));
#968=DIRECTION('center_axis',(0.,1.,0.));
#969=DIRECTION('ref_axis',(1.,0.,0.));
#970=DIRECTION('',(-1.,0.,0.));
#971=DIRECTION('center_axis',(0.,0.,1.));
#972=DIRECTION('ref_axis',(1.,0.,0.));
#973=DIRECTION('',(0.,1.,0.));
#974=DIRECTION('',(-1.,0.,0.));
#975=DIRECTION('',(0.,1.,0.));
#976=DIRECTION('center_axis',(-1.,0.,0.));
#977=DIRECTION('ref_axis',(0.,0.,1.));
#978=DIRECTION('',(0.,1.,0.));
#979=DIRECTION('',(0.,0.,-1.));
#980=DIRECTION('',(0.,-1.,0.));
#981=DIRECTION('center_axis',(0.,1.,0.));
#982=DIRECTION('ref_axis',(-1.,0.,0.));
#983=DIRECTION('center_axis',(0.,1.,0.));
#984=DIRECTION('ref_axis',(1.,0.,0.));
#985=DIRECTION('center_axis',(0.,-1.,0.));
#986=DIRECTION('ref_axis',(1.,0.,0.));
#987=DIRECTION('center_axis',(0.,1.,0.));
#988=DIRECTION('ref_axis',(-1.,0.,0.));
#989=DIRECTION('center_axis',(0.,-1.,0.));
#990=DIRECTION('ref_axis',(1.,0.,0.));
#991=DIRECTION('',(1.,0.,0.));
#992=DIRECTION('center_axis',(0.,1.,0.));
#993=DIRECTION('ref_axis',(1.,0.,0.));
#994=DIRECTION('',(0.,0.,1.));
#995=DIRECTION('center_axis',(0.,0.,-1.));
#996=DIRECTION('ref_axis',(-1.,0.,0.));
#997=DIRECTION('',(0.,1.,0.));
#998=DIRECTION('',(1.,0.,0.));
#999=DIRECTION('',(0.,1.,0.));
#1000=DIRECTION('center_axis',(1.,0.,0.));
#1001=DIRECTION('ref_axis',(0.,0.,-1.));
#1002=DIRECTION('',(0.,1.,0.));
#1003=DIRECTION('',(0.,0.,1.));
#1004=DIRECTION('',(0.,-1.,0.));
#1005=DIRECTION('center_axis',(0.,1.,0.));
#1006=DIRECTION('ref_axis',(-1.,0.,0.));
#1007=DIRECTION('center_axis',(0.,1.,0.));
#1008=DIRECTION('ref_axis',(1.,0.,0.));
#1009=DIRECTION('center_axis',(0.,-1.,0.));
#1010=DIRECTION('ref_axis',(1.,0.,0.));
#1011=DIRECTION('center_axis',(0.,1.,0.));
#1012=DIRECTION('ref_axis',(-1.,0.,0.));
#1013=DIRECTION('center_axis',(0.,-1.,0.));
#1014=DIRECTION('ref_axis',(1.,0.,0.));
#1015=DIRECTION('',(-1.,0.,0.));
#1016=DIRECTION('center_axis',(0.,1.,0.));
#1017=DIRECTION('ref_axis',(1.,0.,0.));
#1018=DIRECTION('',(0.,0.,-1.));
#1019=DIRECTION('center_axis',(1.,0.,-4.40372850815092E-16));
#1020=DIRECTION('ref_axis',(-4.40372850815092E-16,0.,-1.));
#1021=DIRECTION('',(0.,-1.,0.));
#1022=DIRECTION('',(4.40372850815092E-16,0.,1.));
#1023=DIRECTION('',(0.,1.,0.));
#1024=DIRECTION('center_axis',(0.,1.,0.));
#1025=DIRECTION('ref_axis',(1.,0.,0.));
#1026=DIRECTION('',(0.,-1.,0.));
#1027=DIRECTION('',(0.,1.,0.));
#1028=DIRECTION('',(0.,1.,0.));
#1029=DIRECTION('',(0.,1.,0.));
#1030=DIRECTION('center_axis',(0.,0.,-1.));
#1031=DIRECTION('ref_axis',(-1.,0.,0.));
#1032=DIRECTION('',(0.,1.,0.));
#1033=DIRECTION('',(1.,0.,0.));
#1034=DIRECTION('center_axis',(0.,1.,0.));
#1035=DIRECTION('ref_axis',(1.,0.,0.));
#1036=DIRECTION('',(0.,-1.,0.));
#1037=DIRECTION('',(0.,1.,0.));
#1038=DIRECTION('',(0.,1.,0.));
#1039=DIRECTION('',(0.,1.,0.));
#1040=DIRECTION('center_axis',(-1.,0.,0.));
#1041=DIRECTION('ref_axis',(0.,0.,1.));
#1042=DIRECTION('',(0.,1.,0.));
#1043=DIRECTION('',(0.,0.,-1.));
#1044=DIRECTION('center_axis',(0.,1.,0.));
#1045=DIRECTION('ref_axis',(1.,0.,0.));
#1046=DIRECTION('',(0.,-1.,0.));
#1047=DIRECTION('',(0.,1.,0.));
#1048=DIRECTION('',(0.,1.,0.));
#1049=DIRECTION('',(0.,1.,0.));
#1050=DIRECTION('center_axis',(0.,1.,0.));
#1051=DIRECTION('ref_axis',(1.,0.,0.));
#1052=DIRECTION('',(0.,1.,0.));
#1053=DIRECTION('center_axis',(0.,1.,0.));
#1054=DIRECTION('ref_axis',(1.,0.,0.));
#1055=DIRECTION('',(0.,1.,0.));
#1056=DIRECTION('center_axis',(0.,1.,0.));
#1057=DIRECTION('ref_axis',(1.,0.,0.));
#1058=DIRECTION('',(0.,1.,0.));
#1059=DIRECTION('center_axis',(0.,1.,0.));
#1060=DIRECTION('ref_axis',(1.,0.,0.));
#1061=DIRECTION('',(0.,1.,0.));
#1062=DIRECTION('',(0.,1.,0.));
#1063=DIRECTION('center_axis',(0.,1.,0.));
#1064=DIRECTION('ref_axis',(1.,0.,0.));
#1065=DIRECTION('',(0.,-1.,0.));
#1066=DIRECTION('center_axis',(0.,1.,0.));
#1067=DIRECTION('ref_axis',(1.,0.,0.));
#1068=DIRECTION('center_axis',(1.,0.,0.));
#1069=DIRECTION('ref_axis',(0.,0.,-1.));
#1070=DIRECTION('',(0.,0.,1.));
#1071=DIRECTION('center_axis',(0.,0.,1.));
#1072=DIRECTION('ref_axis',(1.,0.,0.));
#1073=DIRECTION('',(-1.,0.,0.));
#1074=DIRECTION('',(0.,1.,0.));
#1075=DIRECTION('center_axis',(-1.,0.,0.));
#1076=DIRECTION('ref_axis',(0.,0.,1.));
#1077=DIRECTION('',(0.,0.,-1.));
#1078=DIRECTION('center_axis',(0.,1.,0.));
#1079=DIRECTION('ref_axis',(1.,0.,0.));
#1080=DIRECTION('',(1.,0.,0.));
#1081=DIRECTION('',(1.,0.,0.));
#1082=DIRECTION('',(0.,0.,1.));
#1083=DIRECTION('',(0.,0.,-1.));
#1084=DIRECTION('',(1.,0.,0.));
#1085=DIRECTION('',(-1.,0.,0.));
#1086=DIRECTION('',(-1.,0.,0.));
#1087=DIRECTION('',(0.,0.,-1.));
#1088=DIRECTION('',(0.,0.,1.));
#1089=DIRECTION('',(-1.,0.,0.));
#1090=DIRECTION('center_axis',(0.,0.,1.));
#1091=DIRECTION('ref_axis',(1.,0.,0.));
#1092=DIRECTION('center_axis',(0.,0.,-1.));
#1093=DIRECTION('ref_axis',(-1.,0.,0.));
#1094=DIRECTION('center_axis',(0.,0.,1.));
#1095=DIRECTION('ref_axis',(1.,0.,0.));
#1096=DIRECTION('',(0.,1.,0.));
#1097=DIRECTION('center_axis',(-1.,0.,0.));
#1098=DIRECTION('ref_axis',(0.,0.,1.));
#1099=DIRECTION('center_axis',(0.,0.,-1.));
#1100=DIRECTION('ref_axis',(-1.,0.,0.));
#1101=DIRECTION('',(0.,1.,0.));
#1102=DIRECTION('center_axis',(1.,0.,0.));
#1103=DIRECTION('ref_axis',(0.,0.,-1.));
#1104=DIRECTION('center_axis',(0.,0.,-1.));
#1105=DIRECTION('ref_axis',(-1.,0.,0.));
#1106=DIRECTION('',(0.,1.,0.));
#1107=DIRECTION('',(0.,1.,0.));
#1108=DIRECTION('center_axis',(-1.,0.,0.));
#1109=DIRECTION('ref_axis',(0.,0.,1.));
#1110=DIRECTION('',(0.,1.,0.));
#1111=DIRECTION('center_axis',(0.,1.,0.));
#1112=DIRECTION('ref_axis',(1.,0.,0.));
#1113=DIRECTION('center_axis',(0.,0.,1.));
#1114=DIRECTION('ref_axis',(1.,0.,0.));
#1115=DIRECTION('',(0.,1.,0.));
#1116=DIRECTION('center_axis',(1.,0.,0.));
#1117=DIRECTION('ref_axis',(0.,0.,-1.));
#1118=CARTESIAN_POINT('',(0.,0.,0.));
#1119=CARTESIAN_POINT('Origin',(-5.00000007450582,17.,-37.1651718582727));
#1120=CARTESIAN_POINT('',(-5.00000007450581,0.,-37.1651718582727));
#1121=CARTESIAN_POINT('',(-5.00000007450582,0.,-39.686269656582));
#1122=CARTESIAN_POINT('',(-5.00000007450581,0.,-18.5825859291363));
#1123=CARTESIAN_POINT('',(-5.00000007450582,-8.,-37.1651718582727));
#1124=CARTESIAN_POINT('',(-5.00000007450582,17.,-37.1651718582727));
#1125=CARTESIAN_POINT('',(-5.00000007450582,-8.,-39.686269656582));
#1126=CARTESIAN_POINT('',(-5.00000007450582,-8.,-29.7762762129279));
#1127=CARTESIAN_POINT('',(-5.00000007450582,17.,-39.686269656582));
#1128=CARTESIAN_POINT('Origin',(-22.3375103048771,-8.,-22.3873805675832));
#1129=CARTESIAN_POINT('',(-37.1531594144075,-8.,-5.08849147858432));
#1130=CARTESIAN_POINT('Origin',(0.,-8.,0.));
#1131=CARTESIAN_POINT('',(-39.6750205352483,-8.,-5.08849147858432));
#1132=CARTESIAN_POINT('',(-31.0062654200627,-8.,-5.08849147858432));
#1133=CARTESIAN_POINT('Origin',(0.,-8.,0.));
#1134=CARTESIAN_POINT('Origin',(-39.6750205352483,17.,-5.08849147858432));
#1135=CARTESIAN_POINT('',(-39.6750205352483,0.,-5.08849147858432));
#1136=CARTESIAN_POINT('',(-37.1531594144075,0.,-5.08849147858431));
#1137=CARTESIAN_POINT('',(-19.8375102676242,0.,-5.08849147858432));
#1138=CARTESIAN_POINT('',(-39.6750205352483,17.,-5.08849147858432));
#1139=CARTESIAN_POINT('',(-37.1531594144075,17.,-5.08849147858432));
#1140=CARTESIAN_POINT('Origin',(-22.3375103048771,19.,-22.3873805675832));
#1141=CARTESIAN_POINT('',(-5.00000007450582,19.,-37.1651718582727));
#1142=CARTESIAN_POINT('',(-5.00000007450582,19.,-39.686269656582));
#1143=CARTESIAN_POINT('',(-5.00000007450582,19.,-29.7762762129279));
#1144=CARTESIAN_POINT('',(-39.6750205352483,19.,-5.08849147858432));
#1145=CARTESIAN_POINT('Origin',(0.,19.,0.));
#1146=CARTESIAN_POINT('',(-37.1531594144075,19.,-5.08849147858432));
#1147=CARTESIAN_POINT('',(-31.0062654200627,19.,-5.08849147858432));
#1148=CARTESIAN_POINT('Origin',(0.,19.,0.));
#1149=CARTESIAN_POINT('Origin',(0.,0.,0.));
#1150=CARTESIAN_POINT('',(-5.00000007450581,0.,-5.08849147858431));
#1151=CARTESIAN_POINT('',(-38.3699715767704,0.,-5.08849147858431));
#1152=CARTESIAN_POINT('',(-5.00000007450581,0.,39.0000005811453));
#1153=CARTESIAN_POINT('',(5.00000007450581,0.,-39.686269656582));
#1154=CARTESIAN_POINT('Origin',(0.,0.,0.));
#1155=CARTESIAN_POINT('',(5.00000007450581,0.,-37.1651718582727));
#1156=CARTESIAN_POINT('',(5.00000007450581,0.,-19.843134828291));
#1157=CARTESIAN_POINT('',(5.00000007450581,0.,-5.08849147858431));
#1158=CARTESIAN_POINT('',(5.00000007450581,0.,-38.0000005662441));
#1159=CARTESIAN_POINT('',(37.1531594144075,0.,-5.08849147858431));
#1160=CARTESIAN_POINT('',(-38.3699715767704,0.,-5.08849147858431));
#1161=CARTESIAN_POINT('',(39.6750205352483,0.,-5.0884914785843));
#1162=CARTESIAN_POINT('',(18.5765797072037,0.,-5.0884914785843));
#1163=CARTESIAN_POINT('',(39.686269656582,0.,5.0000000745058));
#1164=CARTESIAN_POINT('Origin',(0.,0.,0.));
#1165=CARTESIAN_POINT('',(37.1651718582727,0.,5.00000007450581));
#1166=CARTESIAN_POINT('',(19.843134828291,0.,5.0000000745058));
#1167=CARTESIAN_POINT('',(5.00000007450581,0.,5.00000007450581));
#1168=CARTESIAN_POINT('',(38.0000005662441,0.,5.00000007450581));
#1169=CARTESIAN_POINT('',(5.00000007450581,0.,37.1651718582727));
#1170=CARTESIAN_POINT('',(5.00000007450581,0.,-38.0000005662441));
#1171=CARTESIAN_POINT('',(5.00000007450581,0.,39.686269656582));
#1172=CARTESIAN_POINT('',(5.00000007450581,0.,18.5825859291363));
#1173=CARTESIAN_POINT('',(-5.00000007450581,0.,39.686269656582));
#1174=CARTESIAN_POINT('Origin',(0.,0.,0.));
#1175=CARTESIAN_POINT('',(-5.00000007450581,0.,37.1651718582727));
#1176=CARTESIAN_POINT('',(-5.00000007450581,0.,19.843134828291));
#1177=CARTESIAN_POINT('',(-5.00000007450581,0.,5.00000007450581));
#1178=CARTESIAN_POINT('',(-5.00000007450581,0.,39.0000005811453));
#1179=CARTESIAN_POINT('',(-37.1651718582727,0.,5.00000007450581));
#1180=CARTESIAN_POINT('',(38.0000005662441,0.,5.00000007450581));
#1181=CARTESIAN_POINT('',(-39.686269656582,0.,5.00000007450581));
#1182=CARTESIAN_POINT('',(-18.5825859291363,0.,5.00000007450581));
#1183=CARTESIAN_POINT('',(-40.,0.,4.89858719658941E-15));
#1184=CARTESIAN_POINT('Origin',(0.,0.,0.));
#1185=CARTESIAN_POINT('Origin',(0.,0.,0.));
#1186=CARTESIAN_POINT('Origin',(5.00000007450581,17.,37.1651718582727));
#1187=CARTESIAN_POINT('',(5.00000007450581,-8.,37.1651718582727));
#1188=CARTESIAN_POINT('',(5.00000007450581,17.,37.1651718582727));
#1189=CARTESIAN_POINT('',(5.00000007450581,-8.,39.686269656582));
#1190=CARTESIAN_POINT('',(5.00000007450581,-8.,29.7541533619083));
#1191=CARTESIAN_POINT('',(5.00000007450581,17.,39.686269656582));
#1192=CARTESIAN_POINT('Origin',(39.686269656582,17.,5.0000000745058));
#1193=CARTESIAN_POINT('',(39.686269656582,-8.,5.0000000745058));
#1194=CARTESIAN_POINT('',(39.686269656582,17.,5.0000000745058));
#1195=CARTESIAN_POINT('',(37.1651718582727,-8.,5.0000000745058));
#1196=CARTESIAN_POINT('',(31.0147022610629,-8.,5.0000000745058));
#1197=CARTESIAN_POINT('',(37.1651718582727,17.,5.0000000745058));
#1198=CARTESIAN_POINT('Origin',(22.3431348655439,-8.,22.3431348655439));
#1199=CARTESIAN_POINT('Origin',(0.,-8.,0.));
#1200=CARTESIAN_POINT('Origin',(0.,-8.,0.));
#1201=CARTESIAN_POINT('Origin',(22.3431348655439,19.,22.3431348655439));
#1202=CARTESIAN_POINT('',(37.1651718582727,19.,5.0000000745058));
#1203=CARTESIAN_POINT('',(5.00000007450581,19.,37.1651718582727));
#1204=CARTESIAN_POINT('Origin',(0.,19.,0.));
#1205=CARTESIAN_POINT('',(5.00000007450581,19.,39.686269656582));
#1206=CARTESIAN_POINT('',(5.00000007450581,19.,29.7541533619083));
#1207=CARTESIAN_POINT('',(39.686269656582,19.,5.0000000745058));
#1208=CARTESIAN_POINT('Origin',(0.,19.,0.));
#1209=CARTESIAN_POINT('',(31.0147022610629,19.,5.0000000745058));
#1210=CARTESIAN_POINT('Origin',(37.1531594144075,17.,-5.0884914785843));
#1211=CARTESIAN_POINT('',(37.1531594144075,-8.,-5.0884914785843));
#1212=CARTESIAN_POINT('',(37.1531594144075,17.,-5.0884914785843));
#1213=CARTESIAN_POINT('',(39.6750205352483,-8.,-5.0884914785843));
#1214=CARTESIAN_POINT('',(29.7453348596423,-8.,-5.0884914785843));
#1215=CARTESIAN_POINT('',(39.6750205352483,17.,-5.0884914785843));
#1216=CARTESIAN_POINT('Origin',(5.00000007450581,17.,-39.686269656582));
#1217=CARTESIAN_POINT('',(5.00000007450581,-8.,-39.686269656582));
#1218=CARTESIAN_POINT('',(5.00000007450581,17.,-39.686269656582));
#1219=CARTESIAN_POINT('',(5.00000007450581,-8.,-37.1651718582727));
#1220=CARTESIAN_POINT('',(5.00000007450581,-8.,-31.0368251120826));
#1221=CARTESIAN_POINT('',(5.00000007450581,17.,-37.1651718582727));
#1222=CARTESIAN_POINT('Origin',(22.337510304877,-8.,-22.3873805675832));
#1223=CARTESIAN_POINT('Origin',(0.,-8.,0.));
#1224=CARTESIAN_POINT('Origin',(0.,-8.,0.));
#1225=CARTESIAN_POINT('Origin',(22.337510304877,19.,-22.3873805675832));
#1226=CARTESIAN_POINT('',(5.00000007450581,19.,-37.1651718582727));
#1227=CARTESIAN_POINT('',(37.1531594144075,19.,-5.0884914785843));
#1228=CARTESIAN_POINT('Origin',(0.,19.,0.));
#1229=CARTESIAN_POINT('',(39.6750205352483,19.,-5.0884914785843));
#1230=CARTESIAN_POINT('',(29.7453348596423,19.,-5.0884914785843));
#1231=CARTESIAN_POINT('',(5.00000007450581,19.,-39.686269656582));
#1232=CARTESIAN_POINT('Origin',(0.,19.,0.));
#1233=CARTESIAN_POINT('',(5.00000007450581,19.,-31.0368251120826));
#1234=CARTESIAN_POINT('Origin',(-37.1651718582727,17.,5.00000007450581));
#1235=CARTESIAN_POINT('',(-37.1651718582727,-8.,5.00000007450581));
#1236=CARTESIAN_POINT('',(-37.1651718582727,17.,5.00000007450581));
#1237=CARTESIAN_POINT('',(-39.686269656582,-8.,5.00000007450581));
#1238=CARTESIAN_POINT('',(-29.7541533619083,-8.,5.00000007450581));
#1239=CARTESIAN_POINT('',(-39.686269656582,17.,5.00000007450581));
#1240=CARTESIAN_POINT('Origin',(-5.00000007450581,17.,39.686269656582));
#1241=CARTESIAN_POINT('',(-5.00000007450581,-8.,39.686269656582));
#1242=CARTESIAN_POINT('',(-5.00000007450581,17.,39.686269656582));
#1243=CARTESIAN_POINT('',(-5.00000007450581,-8.,37.1651718582727));
#1244=CARTESIAN_POINT('',(-5.00000007450581,-8.,31.0147022610629));
#1245=CARTESIAN_POINT('',(-5.00000007450581,17.,37.1651718582727));
#1246=CARTESIAN_POINT('Origin',(-22.3431348655439,-8.,22.3431348655439));
#1247=CARTESIAN_POINT('Origin',(0.,-8.,0.));
#1248=CARTESIAN_POINT('Origin',(0.,-8.,0.));
#1249=CARTESIAN_POINT('Origin',(-22.3431348655439,19.,22.3431348655439));
#1250=CARTESIAN_POINT('',(-5.00000007450581,19.,37.1651718582727));
#1251=CARTESIAN_POINT('',(-37.1651718582727,19.,5.00000007450581));
#1252=CARTESIAN_POINT('Origin',(0.,19.,0.));
#1253=CARTESIAN_POINT('',(-39.686269656582,19.,5.00000007450581));
#1254=CARTESIAN_POINT('',(-29.7541533619083,19.,5.00000007450581));
#1255=CARTESIAN_POINT('',(-5.00000007450581,19.,39.686269656582));
#1256=CARTESIAN_POINT('Origin',(0.,19.,0.));
#1257=CARTESIAN_POINT('',(-5.00000007450581,19.,31.0147022610629));
#1258=CARTESIAN_POINT('Origin',(-5.00000007450582,7.,-37.1651718582727));
#1259=CARTESIAN_POINT('',(-5.00000007450581,7.,-37.1651718582727));
#1260=CARTESIAN_POINT('',(-5.00000007450582,17.,-37.1651718582727));
#1261=CARTESIAN_POINT('',(-5.00000007450582,7.,-39.686269656582));
#1262=CARTESIAN_POINT('',(-5.00000007450581,7.,-18.5825859291363));
#1263=CARTESIAN_POINT('',(-5.00000007450582,17.,-39.686269656582));
#1264=CARTESIAN_POINT('Origin',(0.,0.,0.));
#1265=CARTESIAN_POINT('',(37.1651718582727,7.,5.00000007450581));
#1266=CARTESIAN_POINT('',(37.1651718582727,17.,5.0000000745058));
#1267=CARTESIAN_POINT('',(37.1651718582727,0.,5.00000007450581));
#1268=CARTESIAN_POINT('',(5.00000007450581,7.,37.1651718582727));
#1269=CARTESIAN_POINT('',(5.00000007450581,0.,37.1651718582727));
#1270=CARTESIAN_POINT('',(5.00000007450581,17.,37.1651718582727));
#1271=CARTESIAN_POINT('Origin',(39.686269656582,7.,5.0000000745058));
#1272=CARTESIAN_POINT('',(39.686269656582,7.,5.0000000745058));
#1273=CARTESIAN_POINT('',(39.686269656582,7.,5.0000000745058));
#1274=CARTESIAN_POINT('',(19.843134828291,7.,5.0000000745058));
#1275=CARTESIAN_POINT('Origin',(0.,0.,0.));
#1276=CARTESIAN_POINT('',(5.00000007450581,7.,-37.1651718582727));
#1277=CARTESIAN_POINT('',(5.00000007450581,17.,-37.1651718582727));
#1278=CARTESIAN_POINT('',(5.00000007450581,0.,-37.1651718582727));
#1279=CARTESIAN_POINT('',(37.1531594144075,7.,-5.08849147858431));
#1280=CARTESIAN_POINT('',(37.1531594144075,0.,-5.08849147858431));
#1281=CARTESIAN_POINT('',(37.1531594144075,17.,-5.0884914785843));
#1282=CARTESIAN_POINT('Origin',(5.00000007450581,7.,-39.686269656582));
#1283=CARTESIAN_POINT('',(5.00000007450581,7.,-39.686269656582));
#1284=CARTESIAN_POINT('',(5.00000007450581,7.,-39.686269656582));
#1285=CARTESIAN_POINT('',(5.00000007450581,7.,-19.843134828291));
#1286=CARTESIAN_POINT('Origin',(0.,0.,0.));
#1287=CARTESIAN_POINT('',(-5.00000007450581,7.,37.1651718582727));
#1288=CARTESIAN_POINT('',(-5.00000007450581,17.,37.1651718582727));
#1289=CARTESIAN_POINT('',(-5.00000007450581,0.,37.1651718582727));
#1290=CARTESIAN_POINT('',(-37.1651718582727,7.,5.00000007450581));
#1291=CARTESIAN_POINT('',(-37.1651718582727,0.,5.00000007450581));
#1292=CARTESIAN_POINT('',(-37.1651718582727,17.,5.00000007450581));
#1293=CARTESIAN_POINT('Origin',(0.,0.,0.));
#1294=CARTESIAN_POINT('',(-39.6750205352483,7.,-5.08849147858432));
#1295=CARTESIAN_POINT('',(-39.6750205352483,7.,-5.08849147858432));
#1296=CARTESIAN_POINT('Origin',(0.,7.,0.));
#1297=CARTESIAN_POINT('',(39.6750205352483,7.,-5.0884914785843));
#1298=CARTESIAN_POINT('',(39.6750205352483,7.,-5.0884914785843));
#1299=CARTESIAN_POINT('Origin',(0.,7.,0.));
#1300=CARTESIAN_POINT('',(5.00000007450581,7.,39.686269656582));
#1301=CARTESIAN_POINT('',(5.00000007450581,7.,39.686269656582));
#1302=CARTESIAN_POINT('',(-5.00000007450581,7.,39.686269656582));
#1303=CARTESIAN_POINT('Origin',(0.,7.,0.));
#1304=CARTESIAN_POINT('',(-5.00000007450581,7.,39.686269656582));
#1305=CARTESIAN_POINT('',(-39.686269656582,7.,5.00000007450581));
#1306=CARTESIAN_POINT('',(-39.686269656582,7.,5.00000007450581));
#1307=CARTESIAN_POINT('',(-40.,7.,4.89858719658941E-15));
#1308=CARTESIAN_POINT('Origin',(0.,7.,0.));
#1309=CARTESIAN_POINT('',(-40.,0.,4.89858719658941E-15));
#1310=CARTESIAN_POINT('Origin',(0.,7.,0.));
#1311=CARTESIAN_POINT('Origin',(-5.00000007450581,7.,39.686269656582));
#1312=CARTESIAN_POINT('',(-5.00000007450581,7.,19.843134828291));
#1313=CARTESIAN_POINT('Origin',(-39.6750205352483,7.,-5.08849147858432));
#1314=CARTESIAN_POINT('',(-37.1531594144075,7.,-5.08849147858431));
#1315=CARTESIAN_POINT('',(-19.8375102676242,7.,-5.08849147858432));
#1316=CARTESIAN_POINT('',(-37.1531594144075,7.,-5.08849147858432));
#1317=CARTESIAN_POINT('Origin',(5.00000007450581,7.,37.1651718582727));
#1318=CARTESIAN_POINT('',(5.00000007450581,7.,18.5825859291363));
#1319=CARTESIAN_POINT('Origin',(0.,7.,0.));
#1320=CARTESIAN_POINT('',(-18.5825859291363,7.,5.00000007450581));
#1321=CARTESIAN_POINT('',(-5.00000007450581,7.,5.00000007450581));
#1322=CARTESIAN_POINT('',(38.0000005662441,7.,5.00000007450581));
#1323=CARTESIAN_POINT('',(-5.00000007450581,7.,39.0000005811453));
#1324=CARTESIAN_POINT('',(5.00000007450581,7.,5.00000007450581));
#1325=CARTESIAN_POINT('',(5.00000007450581,7.,-38.0000005662441));
#1326=CARTESIAN_POINT('',(38.0000005662441,7.,5.00000007450581));
#1327=CARTESIAN_POINT('',(18.5765797072037,7.,-5.0884914785843));
#1328=CARTESIAN_POINT('',(5.00000007450581,7.,-5.08849147858431));
#1329=CARTESIAN_POINT('',(-38.3699715767704,7.,-5.08849147858431));
#1330=CARTESIAN_POINT('',(5.00000007450581,7.,-38.0000005662441));
#1331=CARTESIAN_POINT('',(-5.00000007450581,7.,-5.08849147858431));
#1332=CARTESIAN_POINT('',(-5.00000007450581,7.,39.0000005811453));
#1333=CARTESIAN_POINT('',(-38.3699715767704,7.,-5.08849147858431));
#1334=CARTESIAN_POINT('Origin',(37.1531594144075,7.,-5.0884914785843));
#1335=CARTESIAN_POINT('Origin',(-37.1651718582727,7.,5.00000007450581));
#1336=CARTESIAN_POINT('Origin',(-37.1651718582727,0.,5.00000007450581));
#1337=CARTESIAN_POINT('',(-5.00000007450581,0.,5.00000007450581));
#1338=CARTESIAN_POINT('Origin',(-5.00000007450581,0.,5.00000007450581));
#1339=CARTESIAN_POINT('Origin',(37.1531594144075,0.,-5.08849147858431));
#1340=CARTESIAN_POINT('',(5.00000007450581,0.,-5.08849147858431));
#1341=CARTESIAN_POINT('Origin',(5.00000007450581,0.,-5.08849147858431));
#1342=CARTESIAN_POINT('Origin',(-5.00000007450581,0.,-5.08849147858431));
#1343=CARTESIAN_POINT('',(-37.1531594144075,0.,-5.08849147858431));
#1344=CARTESIAN_POINT('',(-5.00000007450581,0.,-5.08849147858431));
#1345=CARTESIAN_POINT('Origin',(-5.00000007450581,0.,-37.1651718582727));
#1346=CARTESIAN_POINT('',(-5.00000007450581,0.,-37.1651718582727));
#1347=CARTESIAN_POINT('Origin',(0.,0.,0.));
#1348=CARTESIAN_POINT('Origin',(5.00000007450581,0.,5.00000007450581));
#1349=CARTESIAN_POINT('',(5.00000007450581,0.,5.00000007450581));
#1350=CARTESIAN_POINT('Origin',(5.00000007450581,0.,37.1651718582727));
#1351=UNCERTAINTY_MEASURE_WITH_UNIT(LENGTH_MEASURE(0.01),#1355,
'DISTANCE_ACCURACY_VALUE',
'Maximum model space distance between geometric entities at asserted c
onnectivities');
#1352=UNCERTAINTY_MEASURE_WITH_UNIT(LENGTH_MEASURE(0.01),#1355,
'DISTANCE_ACCURACY_VALUE',
'Maximum model space distance between geometric entities at asserted c
onnectivities');
#1353=(
GEOMETRIC_REPRESENTATION_CONTEXT(3)
GLOBAL_UNCERTAINTY_ASSIGNED_CONTEXT((#1351))
GLOBAL_UNIT_ASSIGNED_CONTEXT((#1355,#1357,#1358))
REPRESENTATION_CONTEXT('','3D')
);
#1354=(
GEOMETRIC_REPRESENTATION_CONTEXT(3)
GLOBAL_UNCERTAINTY_ASSIGNED_CONTEXT((#1352))
GLOBAL_UNIT_ASSIGNED_CONTEXT((#1355,#1357,#1358))
REPRESENTATION_CONTEXT('','3D')
);
#1355=(
LENGTH_UNIT()
NAMED_UNIT(*)
SI_UNIT(.MILLI.,.METRE.)
);
#1356=(
LENGTH_UNIT()
NAMED_UNIT(*)
SI_UNIT($,.METRE.)
);
#1357=(
NAMED_UNIT(*)
PLANE_ANGLE_UNIT()
SI_UNIT($,.RADIAN.)
);
#1358=(
NAMED_UNIT(*)
SI_UNIT($,.STERADIAN.)
SOLID_ANGLE_UNIT()
);
#1359=SHAPE_DEFINITION_REPRESENTATION(#1360,#1361);
#1360=PRODUCT_DEFINITION_SHAPE('',$,#1363);
#1361=SHAPE_REPRESENTATION('',(#827),#1353);
#1362=PRODUCT_DEFINITION_CONTEXT('part definition',#1367,'design');
#1363=PRODUCT_DEFINITION('2026-09-25-21-00-39-640','FusionComponent',#1364,
#1362);
#1364=PRODUCT_DEFINITION_FORMATION('',$,#1369);
#1365=PRODUCT_RELATED_PRODUCT_CATEGORY('FusionComponent',
'FusionComponent',(#1369));
#1366=APPLICATION_PROTOCOL_DEFINITION('international standard',
'automotive_design',2009,#1367);
#1367=APPLICATION_CONTEXT(
'Core Data for Automotive Mechanical Design Process');
#1368=PRODUCT_CONTEXT('part definition',#1367,'mechanical');
#1369=PRODUCT('2026-09-25-21-00-39-640','FusionComponent',$,(#1368));
#1370=PRESENTATION_STYLE_ASSIGNMENT((#1371));
#1371=SURFACE_STYLE_USAGE(.BOTH.,#1372);
#1372=SURFACE_SIDE_STYLE('',(#1373));
#1373=SURFACE_STYLE_FILL_AREA(#1374);
#1374=FILL_AREA_STYLE('Steel - Satin',(#1375));
#1375=FILL_AREA_STYLE_COLOUR('Steel - Satin',#1376);
#1376=COLOUR_RGB('Steel - Satin',0.627450980392157,0.627450980392157,0.627450980392157);
ENDSEC;
END-ISO-10303-21;
